  0
SECTION
  2
HEADER
  9
$ACADVER
  1
AC1009
  9
$DWGCODEPAGE
  3
dos850
  9
$INSBASE
 10
0.0
 20
0.0
 30
0.0
  9
$EXTMIN
 10
0.0
 20
0.0
 30
0.0
  9
$EXTMAX
 10
1000.0
 20
1000.0
 30
1000.0
  9
$LIMMIN
 10
0.0
 20
0.0
  9
$LIMMAX
 10
420.0
 20
297.0
  9
$ORTHOMODE
 70
     0
  9
$REGENMODE
 70
     1
  9
$FILLMODE
 70
     1
  9
$QTEXTMODE
 70
     0
  9
$MIRRTEXT
 70
     1
  9
$DRAGMODE
 70
     2
  9
$LTSCALE
 40
1.0
  9
$OSMODE
 70
    37
  9
$ATTMODE
 70
     1
  9
$TEXTSIZE
 40
2.5
  9
$TRACEWID
 40
1.0
  9
$TEXTSTYLE
  7
STANDARD
  9
$CLAYER
  8
0
  9
$CELTYPE
  6
BYLAYER
  9
$CECOLOR
 62
   256
  9
$DIMSCALE
 40
1.0
  9
$DIMASZ
 40
2.5
  9
$DIMEXO
 40
0.625
  9
$DIMDLI
 40
3.75
  9
$DIMRND
 40
0.0
  9
$DIMDLE
 40
0.0
  9
$DIMEXE
 40
1.25
  9
$DIMTP
 40
0.0
  9
$DIMTM
 40
0.0
  9
$DIMTXT
 40
2.5
  9
$DIMCEN
 40
2.5
  9
$DIMTSZ
 40
0.0
  9
$DIMTOL
 70
     0
  9
$DIMLIM
 70
     0
  9
$DIMTIH
 70
     0
  9
$DIMTOH
 70
     0
  9
$DIMSE1
 70
     0
  9
$DIMSE2
 70
     0
  9
$DIMTAD
 70
     1
  9
$DIMZIN
 70
     8
  9
$DIMBLK
  1

  9
$DIMASO
 70
     1
  9
$DIMSHO
 70
     1
  9
$DIMPOST
  1

  9
$DIMAPOST
  1

  9
$DIMALT
 70
     0
  9
$DIMALTD
 70
     3
  9
$DIMALTF
 40
0.03937007874016
  9
$DIMLFAC
 40
1.0
  9
$DIMTOFL
 70
     1
  9
$DIMTVP
 40
0.0
  9
$DIMTIX
 70
     0
  9
$DIMSOXD
 70
     0
  9
$DIMSAH
 70
     0
  9
$DIMBLK1
  1

  9
$DIMBLK2
  1

  9
$DIMSTYLE
  2
ISO-25
  9
$DIMCLRD
 70
     0
  9
$DIMCLRE
 70
     0
  9
$DIMCLRT
 70
     0
  9
$DIMTFAC
 40
1.0
  9
$DIMGAP
 40
0.625
  9
$LUNITS
 70
     2
  9
$LUPREC
 70
     4
  9
$SKETCHINC
 40
1.0
  9
$FILLETRAD
 40
10.0
  9
$AUNITS
 70
     0
  9
$AUPREC
 70
     0
  9
$MENU
  1
.
  9
$ELEVATION
 40
0.0
  9
$PELEVATION
 40
0.0
  9
$THICKNESS
 40
0.0
  9
$LIMCHECK
 70
     0
  9
$CHAMFERA
 40
10.0
  9
$CHAMFERB
 40
10.0
  9
$SKPOLY
 70
     0
  9
$TDCREATE
 40
2457018.039976852
  9
$TDUPDATE
 40
2457018.039976852
  9
$TDINDWG
 40
0.0000000116
  9
$TDUSRTIMER
 40
0.0000000116
  9
$USRTIMER
 70
     1
  9
$ANGBASE
 50
0.0
  9
$ANGDIR
 70
     0
  9
$PDMODE
 70
     0
  9
$PDSIZE
 40
0.0
  9
$PLINEWID
 40
0.0
  9
$COORDS
 70
     1
  9
$SPLFRAME
 70
     0
  9
$SPLINETYPE
 70
     6
  9
$SPLINESEGS
 70
     8
  9
$ATTDIA
 70
     0
  9
$ATTREQ
 70
     1
  9
$HANDLING
 70
     1
  9
$HANDSEED
  5
250
  9
$SURFTAB1
 70
     6
  9
$SURFTAB2
 70
     6
  9
$SURFTYPE
 70
     6
  9
$SURFU
 70
     6
  9
$SURFV
 70
     6
  9
$UCSNAME
  2

  9
$UCSORG
 10
0.0
 20
0.0
 30
0.0
  9
$UCSXDIR
 10
1.0
 20
0.0
 30
0.0
  9
$UCSYDIR
 10
0.0
 20
1.0
 30
0.0
  9
$PUCSNAME
  2

  9
$PUCSORG
 10
0.0
 20
0.0
 30
0.0
  9
$PUCSXDIR
 10
1.0
 20
0.0
 30
0.0
  9
$PUCSYDIR
 10
0.0
 20
1.0
 30
0.0
  9
$USERI1
 70
     0
  9
$USERI2
 70
     0
  9
$USERI3
 70
     0
  9
$USERI4
 70
     0
  9
$USERI5
 70
     0
  9
$USERR1
 40
0.0
  9
$USERR2
 40
0.0
  9
$USERR3
 40
0.0
  9
$USERR4
 40
0.0
  9
$USERR5
 40
0.0
  9
$WORLDVIEW
 70
     1
  9
$SHADEDGE
 70
     3
  9
$SHADEDIF
 70
    70
  9
$TILEMODE
 70
     1
  9
$MAXACTVP
 70
    64
  9
$PLIMCHECK
 70
     0
  9
$PEXTMIN
 10
0.0
 20
0.0
 30
0.0
  9
$PEXTMAX
 10
1000.0
 20
1000.0
 30
0.0
  9
$PLIMMIN
 10
0.0
 20
0.0
  9
$PLIMMAX
 10
100.0
 20
100.0
  9
$UNITMODE
 70
     0
  9
$VISRETAIN
 70
     1
  9
$PLINEGEN
 70
     0
  9
$PSLTSCALE
 70
     1
  0
ENDSEC
  0
SECTION
  2
TABLES
  0
TABLE
  2
VPORT
 70
     1
  0
VPORT
  2
*ACTIVE
 70
     0
 10
0.0
 20
0.0
 11
1.0
 21
1.0
 12
-0.2121320343559887
 22
0.0
 13
0.0
 23
0.0
 14
10.0
 24
10.0
 15
10.0
 25
10.0
 16
0.0
 26
0.0
 36
1.0
 17
0.0
 27
0.0
 37
0.0
 40
31.46549870017232
 41
1.972972972850329
 42
50.0
 43
0.0
 44
0.0
 50
0.0
 51
0.0
 71
     0
 72
   100
 73
     1
 74
     3
 75
     0
 76
     0
 77
     0
 78
     0
  0
ENDTAB
  0
TABLE
  2
LTYPE
 70
     4
  0
LTYPE
  2
CONTINUOUS
 70
     0
  3
Solid line
 72
    65
 73
     0
 40
0.0
  0
LTYPE
  2
CNS_SOLID
 70
     0
  3

 72
    65
 73
     0
 40
0.0
  0
LTYPE
  2
CNS_DASHED
 70
     0
  3

 72
    65
 73
     2
 40
2.0
 49
1.0
 49
-1.0
  0
LTYPE
  2
CNS_CENTER
 70
     0
  3

 72
    65
 73
     4
 40
2.0
 49
0.45
 49
-0.5
 49
0.05
 49
-0.5
  0
ENDTAB
  0
TABLE
  2
LAYER
 70
     8
  0
LAYER
  2
0
 70
     0
 62
     7
  6
CONTINUOUS
  0
LAYER
  2
VIS
 70
     0
 62
     7
  6
CNS_SOLID
  0
LAYER
  2
THIN
 70
     0
 62
     7
  6
CNS_SOLID
  0
LAYER
  2
HIDDEN
 70
     0
 62
     7
  6
CNS_DASHED
  0
LAYER
  2
CENTER
 70
     0
 62
     7
  6
CNS_CENTER
  0
LAYER
  2
CENTER1
 70
     0
 62
     7
  6
CNS_CENTER
  0
LAYER
  2
THREAD
 70
     0
 62
     7
  6
CNS_SOLID
  0
LAYER
  2
ATTRIB
 70
     0
 62
     7
  6
CNS_SOLID
  0
ENDTAB
  0
TABLE
  2
STYLE
 70
     1
  0
STYLE
  2
STANDARD
 70
     0
 40
0.0
 41
1.0
 50
0.0
 71
     0
 42
2.5
  3
txt
  4

  0
ENDTAB
  0
TABLE
  2
VIEW
 70
     0
  0
ENDTAB
  0
TABLE
  2
UCS
 70
     0
  0
ENDTAB
  0
TABLE
  2
APPID
 70
     1
  0
APPID
  2
ACAD
 70
     0
  0
ENDTAB
  0
TABLE
  2
DIMSTYLE
 70
     1
  0
DIMSTYLE
  2
ISO-25
 70
     0
  3

  4

  5

  6

  7

 40
1.0
 41
2.5
 42
0.625
 43
3.75
 44
1.25
 45
0.0
 46
0.0
 47
0.0
 48
0.0
140
2.5
141
2.5
142
0.0
143
0.03937007874016
144
1.0
145
0.0
146
1.0
147
0.625
 71
     0
 72
     0
 73
     0
 74
     0
 75
     0
 76
     0
 77
     1
 78
     8
170
     0
171
     3
172
     1
173
     0
174
     0
175
     0
176
     0
177
     0
178
     0
  0
ENDTAB
  0
ENDSEC
  0
SECTION
  2
BLOCKS
  0
BLOCK
  8
0
  2
$MODEL_SPACE
 70
     0
 10
0.0
 20
0.0
 30
0.0
  3
$MODEL_SPACE
  1

  0
ENDBLK
  5
21
  8
0
  0
BLOCK
 67
     1
  8
0
  2
$PAPER_SPACE
 70
     0
 10
0.0
 20
0.0
 30
0.0
  3
$PAPER_SPACE
  1

  0
ENDBLK
  5
1D
 67
     1
  8
0
  0
ENDSEC
  0
SECTION
  2
ENTITIES
  0
LINE
  5
34
  8
VIS
 62
     1
 10
-15.0
 20
4.0
 30
0.0
 11
-13.0
 21
4.0
 31
0.0
  0
LINE
  5
35
  8
VIS
 62
     1
 10
-15.0
 20
13.0
 30
0.0
 11
-15.0
 21
4.0
 31
0.0
  0
ARC
  5
36
  8
VIS
 62
     1
 10
-13.00000000000001
 20
13.00000000000001
 30
0.0
 40
1.999999999999993
 50
90.0
 51
180.0
  0
LINE
  5
37
  8
VIS
 62
     1
 10
-3.999999999999996
 20
15.0
 30
0.0
 11
-13.0
 21
15.0
 31
0.0
  0
LINE
  5
38
  8
VIS
 62
     1
 10
-3.999999999999996
 20
13.0
 30
0.0
 11
-3.999999999999996
 21
15.0
 31
0.0
  0
LINE
  5
39
  8
VIS
 62
     1
 10
-8.249999999999996
 20
13.0
 30
0.0
 11
-3.999999999999996
 21
13.0
 31
0.0
  0
LINE
  5
3A
  8
VIS
 62
     1
 10
-8.249999999999998
 20
9.664213562373096
 30
0.0
 11
-8.249999999999996
 21
13.0
 31
0.0
  0
LINE
  5
3B
  8
VIS
 62
     1
 10
-4.585786437626906
 20
6.0
 30
0.0
 11
-8.249999999999998
 21
9.664213562373096
 31
0.0
  0
LINE
  5
3C
  8
VIS
 62
     1
 10
-2.500000000000006
 20
6.0
 30
0.0
 11
-4.585786437626906
 21
6.0
 31
0.0
  0
LINE
  5
3D
  8
VIS
 62
     1
 10
-1.218885628793307
 20
5.750976592484068
 30
0.0
 11
-2.500000000000006
 21
6.0
 31
0.0
  0
LINE
  5
3E
  8
VIS
 62
     1
 10
-0.9035898384862309
 20
5.933012701892221
 30
0.0
 11
-1.218885628793307
 21
5.750976592484068
 31
0.0
  0
ARC
  5
3F
  8
VIS
 62
     1
 10
-0.6535898384862261
 20
5.499999999999967
 30
0.0
 40
0.500000000000033
 50
60.00000000000107
 51
119.9999999999985
  0
LINE
  5
40
  8
VIS
 62
     1
 10
0.000000000000001
 20
5.700000000000003
 30
0.0
 11
-0.4035898384862177
 21
5.93301270189222
 31
0.0
  0
LINE
  5
41
  8
VIS
 62
     1
 10
0.5196152422706613
 20
6.0
 30
0.0
 11
0.0000000000000011
 21
5.700000000000003
 31
0.0
  0
LINE
  5
42
  8
VIS
 62
     1
 10
4.585786437626908
 20
6.0
 30
0.0
 11
0.5196152422706613
 21
6.0
 31
0.0
  0
LINE
  5
43
  8
VIS
 62
     1
 10
8.25
 20
9.664213562373094
 30
0.0
 11
4.585786437626908
 21
6.0
 31
0.0
  0
LINE
  5
44
  8
VIS
 62
     1
 10
8.25
 20
13.0
 30
0.0
 11
8.25
 21
9.664213562373094
 31
0.0
  0
LINE
  5
45
  8
VIS
 62
     1
 10
4.000000000000003
 20
13.0
 30
0.0
 11
8.25
 21
13.0
 31
0.0
  0
LINE
  5
46
  8
VIS
 62
     1
 10
4.000000000000004
 20
15.0
 30
0.0
 11
4.000000000000003
 21
13.0
 31
0.0
  0
LINE
  5
47
  8
VIS
 62
     1
 10
13.0
 20
15.0
 30
0.0
 11
4.000000000000004
 21
15.0
 31
0.0
  0
ARC
  5
48
  8
VIS
 62
     1
 10
13.0
 20
13.0
 30
0.0
 40
2.000000000000004
 50
0.0
 51
90.0
  0
LINE
  5
49
  8
VIS
 62
     1
 10
15.0
 20
3.999999999999994
 30
0.0
 11
15.0
 21
13.0
 31
0.0
  0
LINE
  5
4A
  8
VIS
 62
     1
 10
13.0
 20
3.999999999999994
 30
0.0
 11
15.0
 21
3.999999999999994
 31
0.0
  0
LINE
  5
4B
  8
VIS
 62
     1
 10
13.0
 20
8.249999999999996
 30
0.0
 11
13.0
 21
3.999999999999994
 31
0.0
  0
LINE
  5
4C
  8
VIS
 62
     1
 10
9.664213562373096
 20
8.249999999999998
 30
0.0
 11
13.0
 21
8.249999999999996
 31
0.0
  0
LINE
  5
4D
  8
VIS
 62
     1
 10
6.0
 20
4.585786437626908
 30
0.0
 11
9.664213562373096
 21
8.249999999999998
 31
0.0
  0
LINE
  5
4E
  8
VIS
 62
     1
 10
6.0
 20
2.500000000000006
 30
0.0
 11
6.0
 21
4.585786437626908
 31
0.0
  0
LINE
  5
4F
  8
VIS
 62
     1
 10
5.750976592484068
 20
1.218885628793307
 30
0.0
 11
6.0
 21
2.500000000000006
 31
0.0
  0
LINE
  5
50
  8
VIS
 62
     1
 10
5.933012701892221
 20
0.9035898384862311
 30
0.0
 11
5.750976592484068
 21
1.218885628793307
 31
0.0
  0
ARC
  5
51
  8
VIS
 62
     1
 10
5.499999999999968
 20
0.6535898384862262
 30
0.0
 40
0.500000000000032
 50
330.0000000000011
 51
29.99999999999852
  0
LINE
  5
52
  8
VIS
 62
     1
 10
5.700000000000003
 20
-0.0000000000000007
 30
0.0
 11
5.93301270189222
 21
0.4035898384862181
 31
0.0
  0
LINE
  5
53
  8
VIS
 62
     1
 10
6.0
 20
-0.5196152422706613
 30
0.0
 11
5.700000000000003
 21
-0.0000000000000007
 31
0.0
  0
LINE
  5
54
  8
VIS
 62
     1
 10
6.0
 20
-4.585786437626908
 30
0.0
 11
6.0
 21
-0.5196152422706613
 31
0.0
  0
LINE
  5
55
  8
VIS
 62
     1
 10
9.664213562373094
 20
-8.25
 30
0.0
 11
6.0
 21
-4.585786437626908
 31
0.0
  0
LINE
  5
56
  8
VIS
 62
     1
 10
13.0
 20
-8.25
 30
0.0
 11
9.664213562373094
 21
-8.25
 31
0.0
  0
LINE
  5
57
  8
VIS
 62
     1
 10
13.0
 20
-4.000000000000002
 30
0.0
 11
13.0
 21
-8.25
 31
0.0
  0
LINE
  5
58
  8
VIS
 62
     1
 10
15.0
 20
-4.000000000000002
 30
0.0
 11
13.0
 21
-4.000000000000002
 31
0.0
  0
LINE
  5
59
  8
VIS
 62
     1
 10
15.0
 20
-13.0
 30
0.0
 11
15.0
 21
-4.000000000000002
 31
0.0
  0
ARC
  5
5A
  8
VIS
 62
     1
 10
13.0
 20
-13.0
 30
0.0
 40
2.000000000000002
 50
270.0
 51
360.0
  0
LINE
  5
5B
  8
VIS
 62
     1
 10
3.999999999999995
 20
-15.0
 30
0.0
 11
13.0
 21
-15.0
 31
0.0
  0
LINE
  5
5C
  8
VIS
 62
     1
 10
3.999999999999995
 20
-13.0
 30
0.0
 11
3.999999999999995
 21
-15.0
 31
0.0
  0
LINE
  5
5D
  8
VIS
 62
     1
 10
8.249999999999996
 20
-13.0
 30
0.0
 11
3.999999999999995
 21
-13.0
 31
0.0
  0
LINE
  5
5E
  8
VIS
 62
     1
 10
8.249999999999998
 20
-9.664213562373096
 30
0.0
 11
8.249999999999996
 21
-13.0
 31
0.0
  0
LINE
  5
5F
  8
VIS
 62
     1
 10
4.585786437626915
 20
-6.0
 30
0.0
 11
8.249999999999998
 21
-9.664213562373096
 31
0.0
  0
LINE
  5
60
  8
VIS
 62
     1
 10
2.500000000000007
 20
-6.0
 30
0.0
 11
4.585786437626915
 21
-6.0
 31
0.0
  0
LINE
  5
61
  8
VIS
 62
     1
 10
1.218885628793307
 20
-5.750976592484068
 30
0.0
 11
2.500000000000007
 21
-6.0
 31
0.0
  0
LINE
  5
62
  8
VIS
 62
     1
 10
0.9035898384862313
 20
-5.933012701892221
 30
0.0
 11
1.218885628793307
 21
-5.750976592484068
 31
0.0
  0
ARC
  5
63
  8
VIS
 62
     1
 10
0.6535898384862267
 20
-5.499999999999969
 30
0.0
 40
0.5000000000000313
 50
240.0000000000009
 51
299.9999999999985
  0
LINE
  5
64
  8
VIS
 62
     1
 10
-0.0000000000000003
 20
-5.700000000000003
 30
0.0
 11
0.4035898384862184
 21
-5.93301270189222
 31
0.0
  0
LINE
  5
65
  8
VIS
 62
     1
 10
-0.5196152422706604
 20
-6.0
 30
0.0
 11
-0.0000000000000003
 21
-5.700000000000003
 31
0.0
  0
LINE
  5
66
  8
VIS
 62
     1
 10
-4.585786437626908
 20
-6.0
 30
0.0
 11
-0.5196152422706604
 21
-6.0
 31
0.0
  0
LINE
  5
67
  8
VIS
 62
     1
 10
-8.25
 20
-9.664213562373094
 30
0.0
 11
-4.585786437626908
 21
-6.0
 31
0.0
  0
LINE
  5
68
  8
VIS
 62
     1
 10
-8.25
 20
-13.0
 30
0.0
 11
-8.25
 21
-9.664213562373094
 31
0.0
  0
LINE
  5
69
  8
VIS
 62
     1
 10
-4.000000000000001
 20
-13.0
 30
0.0
 11
-8.25
 21
-13.0
 31
0.0
  0
LINE
  5
6A
  8
VIS
 62
     1
 10
-4.0
 20
-15.0
 30
0.0
 11
-4.000000000000001
 21
-13.0
 31
0.0
  0
LINE
  5
6B
  8
VIS
 62
     1
 10
-13.0
 20
-15.0
 30
0.0
 11
-4.0
 21
-15.0
 31
0.0
  0
ARC
  5
6C
  8
VIS
 62
     1
 10
-13.0
 20
-13.0
 30
0.0
 40
1.999999999999996
 50
180.0
 51
270.0
  0
LINE
  5
6D
  8
VIS
 62
     1
 10
-15.0
 20
-3.999999999999996
 30
0.0
 11
-15.0
 21
-13.0
 31
0.0
  0
LINE
  5
6E
  8
VIS
 62
     1
 10
-13.0
 20
-3.999999999999996
 30
0.0
 11
-15.0
 21
-3.999999999999996
 31
0.0
  0
LINE
  5
6F
  8
VIS
 62
     1
 10
-13.0
 20
-8.249999999999996
 30
0.0
 11
-13.0
 21
-3.999999999999996
 31
0.0
  0
LINE
  5
70
  8
VIS
 62
     1
 10
-9.664213562373096
 20
-8.249999999999998
 30
0.0
 11
-13.0
 21
-8.249999999999996
 31
0.0
  0
LINE
  5
71
  8
VIS
 62
     1
 10
-6.0
 20
-4.585786437626908
 30
0.0
 11
-9.664213562373096
 21
-8.249999999999998
 31
0.0
  0
LINE
  5
72
  8
VIS
 62
     1
 10
-6.0
 20
-2.500000000000007
 30
0.0
 11
-6.0
 21
-4.585786437626908
 31
0.0
  0
LINE
  5
73
  8
VIS
 62
     1
 10
-5.750976592484068
 20
-1.218885628793308
 30
0.0
 11
-6.0
 21
-2.500000000000007
 31
0.0
  0
LINE
  5
74
  8
VIS
 62
     1
 10
-5.933012701892221
 20
-0.9035898384862315
 30
0.0
 11
-5.750976592484068
 21
-1.218885628793308
 31
0.0
  0
ARC
  5
75
  8
VIS
 62
     1
 10
-5.499999999999968
 20
-0.6535898384862269
 30
0.0
 40
0.500000000000032
 50
150.0000000000011
 51
209.9999999999985
  0
LINE
  5
76
  8
VIS
 62
     1
 10
-5.700000000000003
 20
0.0
 30
0.0
 11
-5.93301270189222
 21
-0.4035898384862188
 31
0.0
  0
LINE
  5
77
  8
VIS
 62
     1
 10
-6.0
 20
0.5196152422706604
 30
0.0
 11
-5.700000000000003
 21
0.0000000000000002
 31
0.0
  0
LINE
  5
78
  8
VIS
 62
     1
 10
-6.0
 20
4.585786437626908
 30
0.0
 11
-6.0
 21
0.5196152422706604
 31
0.0
  0
LINE
  5
79
  8
VIS
 62
     1
 10
-9.664213562373094
 20
8.25
 30
0.0
 11
-6.0
 21
4.585786437626908
 31
0.0
  0
LINE
  5
7A
  8
VIS
 62
     1
 10
-13.0
 20
8.25
 30
0.0
 11
-9.664213562373094
 21
8.25
 31
0.0
  0
LINE
  5
7B
  8
VIS
 62
     1
 10
-13.0
 20
4.0
 30
0.0
 11
-13.0
 21
8.25
 31
0.0
  0
LINE
  5
7C
  8
VIS
 62
     1
 10
9.918883282434448
 20
12.36153098068685
 30
0.0
 11
9.539070070685739
 21
11.33891574308225
 31
0.0
  0
ARC
  5
7D
  8
VIS
 62
     1
 10
10.85147186257614
 20
10.85147186257614
 30
0.0
 40
1.399999999999998
 50
159.624318352164
 51
290.3756816478359
  0
LINE
  5
7E
  8
VIS
 62
     1
 10
11.33891574308225
 20
9.539070070685737
 30
0.0
 11
12.36153098068685
 21
9.918883282434447
 31
0.0
  0
ARC
  5
7F
  8
VIS
 62
     1
 10
11.7
 20
11.7
 30
0.0
 40
1.899999999999998
 50
290.3756816478358
 51
159.6243183521642
  0
LINE
  5
80
  8
VIS
 62
     1
 10
12.36153098068685
 20
-9.918883282434448
 30
0.0
 11
11.33891574308225
 21
-9.539070070685739
 31
0.0
  0
ARC
  5
81
  8
VIS
 62
     1
 10
10.85147186257614
 20
-10.85147186257614
 30
0.0
 40
1.399999999999998
 50
69.62431835216404
 51
200.3756816478359
  0
LINE
  5
82
  8
VIS
 62
     1
 10
9.539070070685737
 20
-11.33891574308225
 30
0.0
 11
9.918883282434447
 21
-12.36153098068685
 31
0.0
  0
ARC
  5
83
  8
VIS
 62
     1
 10
11.7
 20
-11.7
 30
0.0
 40
1.899999999999998
 50
200.3756816478359
 51
69.62431835216415
  0
LINE
  5
84
  8
VIS
 62
     1
 10
-9.539070070685737
 20
11.33891574308225
 30
0.0
 11
-9.918883282434447
 21
12.36153098068685
 31
0.0
  0
ARC
  5
85
  8
VIS
 62
     1
 10
-11.7
 20
11.7
 30
0.0
 40
1.899999999999998
 50
20.37568164783584
 51
249.6243183521642
  0
LINE
  5
86
  8
VIS
 62
     1
 10
-12.36153098068685
 20
9.918883282434448
 30
0.0
 11
-11.33891574308225
 21
9.539070070685739
 31
0.0
  0
ARC
  5
87
  8
VIS
 62
     1
 10
-10.85147186257614
 20
10.85147186257614
 30
0.0
 40
1.399999999999998
 50
249.624318352164
 51
20.37568164783596
  0
LINE
  5
88
  8
VIS
 62
     1
 10
-11.33891574308225
 20
-9.539070070685737
 30
0.0
 11
-12.36153098068685
 21
-9.918883282434447
 31
0.0
  0
ARC
  5
89
  8
VIS
 62
     1
 10
-11.7
 20
-11.7
 30
0.0
 40
1.899999999999998
 50
110.3756816478358
 51
339.6243183521642
  0
LINE
  5
8A
  8
VIS
 62
     1
 10
-9.918883282434448
 20
-12.36153098068685
 30
0.0
 11
-9.539070070685739
 21
-11.33891574308225
 31
0.0
  0
ARC
  5
8B
  8
VIS
 62
     1
 10
-10.85147186257614
 20
-10.85147186257614
 30
0.0
 40
1.399999999999998
 50
339.624318352164
 51
110.3756816478359
  0
ARC
  5
8C
  8
VIS
 62
     1
 10
-4.500000000000012
 20
-4.500000000000011
 30
0.0
 40
0.2999999999999883
 50
180.0
 51
270.0
  0
LINE
  5
8D
  8
VIS
 62
     1
 10
-4.8
 20
-4.5
 30
0.0
 11
-4.8
 21
-2.644433572296318
 31
0.0
  0
ARC
  5
8E
  8
VIS
 62
     1
 10
-4.500000000000054
 20
-2.644433572296311
 30
0.0
 40
0.2999999999999456
 50
168.9999999999995
 51
180.0
  0
LINE
  5
8F
  8
VIS
 62
     1
 10
-4.7944881550343
 20
-2.587190873683355
 30
0.0
 11
-4.630346896205073
 21
-1.742757301387035
 31
0.0
  0
ARC
  5
90
  8
VIS
 62
     1
 10
-4.335858741170763
 20
-1.800000000000013
 30
0.0
 40
0.3000000000000134
 50
90.0
 51
168.9999999999977
  0
LINE
  5
91
  8
VIS
 62
     1
 10
-4.335858741170767
 20
-1.5
 30
0.0
 11
-3.5
 21
-1.5
 31
0.0
  0
ARC
  5
92
  8
VIS
 62
     1
 10
-3.499999999999998
 20
-1.200000000000002
 30
0.0
 40
0.2999999999999985
 50
270.0
 51
18.92464441605165
  0
ARC
  5
93
  8
VIS
 62
     1
 10
0.0000000000000058
 20
0.0000000000000053
 30
0.0
 40
3.400000000000004
 50
161.0753552764033
 51
198.9246444160513
  0
ARC
  5
94
  8
VIS
 62
     1
 10
-3.499999999999999
 20
1.2
 30
0.0
 40
0.3000000000000005
 50
341.0753590694652
 51
90.0
  0
LINE
  5
95
  8
VIS
 62
     1
 10
-3.499999999999999
 20
1.5
 30
0.0
 11
-4.335858741170767
 21
1.5
 31
0.0
  0
ARC
  5
96
  8
VIS
 62
     1
 10
-4.335858741170764
 20
1.800000000000013
 30
0.0
 40
0.3000000000000114
 50
191.000000000002
 51
270.0
  0
LINE
  5
97
  8
VIS
 62
     1
 10
-4.630346896205072
 20
1.742757301387036
 30
0.0
 11
-4.794488155034298
 21
2.587190873683356
 31
0.0
  0
ARC
  5
98
  8
VIS
 62
     1
 10
-4.499999999999866
 20
2.64443357229634
 30
0.0
 40
0.3000000000001339
 50
180.0
 51
190.9999999999988
  0
LINE
  5
99
  8
VIS
 62
     1
 10
-4.8
 20
2.64443357229632
 30
0.0
 11
-4.8
 21
4.500000000000007
 31
0.0
  0
ARC
  5
9A
  8
VIS
 62
     1
 10
-4.500000000000011
 20
4.500000000000012
 30
0.0
 40
0.2999999999999883
 50
90.0
 51
180.0
  0
LINE
  5
9B
  8
VIS
 62
     1
 10
-4.5
 20
4.8
 30
0.0
 11
-2.644433572296317
 21
4.8
 31
0.0
  0
ARC
  5
9C
  8
VIS
 62
     1
 10
-2.644433572296309
 20
4.500000000000054
 30
0.0
 40
0.2999999999999456
 50
78.99999999999952
 51
90.0
  0
LINE
  5
9D
  8
VIS
 62
     1
 10
-2.587190873683353
 20
4.7944881550343
 30
0.0
 11
-1.742757301387035
 21
4.630346896205073
 31
0.0
  0
ARC
  5
9E
  8
VIS
 62
     1
 10
-1.800000000000013
 20
4.335858741170763
 30
0.0
 40
0.3000000000000136
 50
0.0
 51
78.99999999999764
  0
LINE
  5
9F
  8
VIS
 62
     1
 10
-1.5
 20
4.335858741170767
 30
0.0
 11
-1.5
 21
3.499999999999999
 31
0.0
  0
ARC
  5
A0
  8
VIS
 62
     1
 10
-1.2
 20
3.5
 30
0.0
 40
0.2999999999999994
 50
180.0
 51
288.9246444160515
  0
ARC
  5
A1
  8
VIS
 62
     1
 10
0.0000000000000037
 20
-0.0000000000000053
 30
0.0
 40
3.400000000000004
 50
71.07535527640329
 51
108.9246444160512
  0
ARC
  5
A2
  8
VIS
 62
     1
 10
1.2
 20
3.499999999999999
 30
0.0
 40
0.3000000000000002
 50
251.0753590694651
 51
0.0000008537736562
  0
LINE
  5
A3
  8
VIS
 62
     1
 10
1.5
 20
3.499999999999999
 30
0.0
 11
1.5
 21
4.335858741170767
 31
0.0
  0
ARC
  5
A4
  8
VIS
 62
     1
 10
1.800000000000015
 20
4.33585874117076
 30
0.0
 40
0.3000000000000156
 50
101.0000000000026
 51
180.0
  0
LINE
  5
A5
  8
VIS
 62
     1
 10
1.742757301387036
 20
4.630346896205072
 30
0.0
 11
2.587190873683356
 21
4.794488155034298
 31
0.0
  0
ARC
  5
A6
  8
VIS
 62
     1
 10
2.644433572296339
 20
4.499999999999861
 30
0.0
 40
0.3000000000001384
 50
90.0
 51
100.9999999999987
  0
LINE
  5
A7
  8
VIS
 62
     1
 10
2.644433572296319
 20
4.8
 30
0.0
 11
4.500000000000007
 21
4.8
 31
0.0
  0
ARC
  5
A8
  8
VIS
 62
     1
 10
4.500000000000012
 20
4.500000000000011
 30
0.0
 40
0.2999999999999883
 50
0.0
 51
90.0
  0
LINE
  5
A9
  8
VIS
 62
     1
 10
4.8
 20
4.5
 30
0.0
 11
4.8
 21
2.644433572296317
 31
0.0
  0
ARC
  5
AA
  8
VIS
 62
     1
 10
4.500000000000054
 20
2.64443357229631
 30
0.0
 40
0.2999999999999456
 50
348.9999999999995
 51
360.0
  0
LINE
  5
AB
  8
VIS
 62
     1
 10
4.7944881550343
 20
2.587190873683354
 30
0.0
 11
4.630346896205073
 21
1.742757301387035
 31
0.0
  0
ARC
  5
AC
  8
VIS
 62
     1
 10
4.335858741170763
 20
1.800000000000013
 30
0.0
 40
0.3000000000000134
 50
270.0
 51
348.9999999999977
  0
LINE
  5
AD
  8
VIS
 62
     1
 10
4.335858741170767
 20
1.5
 30
0.0
 11
3.499999999999999
 21
1.5
 31
0.0
  0
ARC
  5
AE
  8
VIS
 62
     1
 10
3.5
 20
1.2
 30
0.0
 40
0.2999999999999996
 50
90.0
 51
198.9246444160515
  0
ARC
  5
AF
  8
VIS
 62
     1
 10
-0.0000000000000004
 20
-0.0000000000000069
 30
0.0
 40
3.399999999999998
 50
341.0753552764033
 51
18.92464441605131
  0
ARC
  5
B0
  8
VIS
 62
     1
 10
3.5
 20
-1.2
 30
0.0
 40
0.3000000000000009
 50
161.0753590694652
 51
270.0
  0
LINE
  5
B1
  8
VIS
 62
     1
 10
3.499999999999999
 20
-1.5
 30
0.0
 11
4.335858741170767
 21
-1.5
 31
0.0
  0
ARC
  5
B2
  8
VIS
 62
     1
 10
4.335858741170762
 20
-1.800000000000014
 30
0.0
 40
0.3000000000000136
 50
11.00000000000246
 51
90.0
  0
LINE
  5
B3
  8
VIS
 62
     1
 10
4.630346896205073
 20
-1.742757301387035
 30
0.0
 11
4.794488155034299
 21
-2.587190873683355
 31
0.0
  0
ARC
  5
B4
  8
VIS
 62
     1
 10
4.499999999999866
 20
-2.644433572296339
 30
0.0
 40
0.3000000000001339
 50
0.0
 51
10.99999999999883
  0
LINE
  5
B5
  8
VIS
 62
     1
 10
4.8
 20
-2.644433572296319
 30
0.0
 11
4.8
 21
-4.500000000000007
 31
0.0
  0
ARC
  5
B6
  8
VIS
 62
     1
 10
4.500000000000011
 20
-4.500000000000012
 30
0.0
 40
0.2999999999999883
 50
270.0
 51
360.0
  0
LINE
  5
B7
  8
VIS
 62
     1
 10
4.5
 20
-4.8
 30
0.0
 11
2.644433572296318
 21
-4.8
 31
0.0
  0
ARC
  5
B8
  8
VIS
 62
     1
 10
2.64443357229631
 20
-4.500000000000054
 30
0.0
 40
0.2999999999999456
 50
258.9999999999996
 51
270.0
  0
LINE
  5
B9
  8
VIS
 62
     1
 10
2.587190873683354
 20
-4.7944881550343
 30
0.0
 11
1.742757301387035
 21
-4.630346896205073
 31
0.0
  0
ARC
  5
BA
  8
VIS
 62
     1
 10
1.800000000000013
 20
-4.335858741170763
 30
0.0
 40
0.3000000000000136
 50
180.0
 51
258.9999999999976
  0
LINE
  5
BB
  8
VIS
 62
     1
 10
1.5
 20
-4.335858741170767
 30
0.0
 11
1.5
 21
-3.5
 31
0.0
  0
ARC
  5
BC
  8
VIS
 62
     1
 10
1.200000000000001
 20
-3.499999999999999
 30
0.0
 40
0.2999999999999992
 50
0.0
 51
108.9246444160515
  0
ARC
  5
BD
  8
VIS
 62
     1
 10
-0.0000000000000012
 20
-0.0000000000000075
 30
0.0
 40
3.399999999999992
 50
251.0753552764032
 51
288.9246444160513
  0
ARC
  5
BE
  8
VIS
 62
     1
 10
-1.2
 20
-3.5
 30
0.0
 40
0.300000000000001
 50
71.07535906946515
 51
180.0
  0
LINE
  5
BF
  8
VIS
 62
     1
 10
-1.5
 20
-3.499999999999999
 30
0.0
 11
-1.5
 21
-4.335858741170767
 31
0.0
  0
ARC
  5
C0
  8
VIS
 62
     1
 10
-1.800000000000014
 20
-4.335858741170762
 30
0.0
 40
0.3000000000000137
 50
281.0000000000025
 51
360.0
  0
LINE
  5
C1
  8
VIS
 62
     1
 10
-1.742757301387035
 20
-4.630346896205072
 30
0.0
 11
-2.587190873683355
 21
-4.794488155034298
 31
0.0
  0
ARC
  5
C2
  8
VIS
 62
     1
 10
-2.644433572296338
 20
-4.499999999999861
 30
0.0
 40
0.3000000000001384
 50
270.0
 51
280.9999999999986
  0
LINE
  5
C3
  8
VIS
 62
     1
 10
-2.644433572296318
 20
-4.8
 30
0.0
 11
-4.500000000000007
 21
-4.8
 31
0.0
  0
LINE
  5
C4
  8
CENTER
 62
     4
 10
-15.42426406871193
 20
13.00000000000001
 30
0.0
 11
-10.57573593128808
 21
13.00000000000001
 31
0.0
  0
LINE
  5
C5
  8
CENTER
 62
     4
 10
-13.00000000000001
 20
10.57573593128809
 30
0.0
 11
-13.00000000000001
 21
15.42426406871193
 31
0.0
  0
LINE
  5
C6
  8
CENTER
 62
     4
 10
-15.42426406871193
 20
-13.0
 30
0.0
 11
-10.57573593128808
 21
-13.0
 31
0.0
  0
LINE
  5
C7
  8
CENTER
 62
     4
 10
-13.0
 20
-15.42426406871193
 30
0.0
 11
-13.0
 21
-10.57573593128808
 31
0.0
  0
LINE
  5
C8
  8
CENTER
 62
     4
 10
9.027207793864218
 20
10.85147186257614
 30
0.0
 11
12.67573593128807
 21
10.85147186257614
 31
0.0
  0
LINE
  5
C9
  8
CENTER
 62
     4
 10
10.85147186257614
 20
9.027207793864214
 30
0.0
 11
10.85147186257614
 21
12.67573593128807
 31
0.0
  0
LINE
  5
CA
  8
CENTER
 62
     4
 10
9.375735931288077
 20
11.7
 30
0.0
 11
14.02426406871193
 21
11.7
 31
0.0
  0
LINE
  5
CB
  8
CENTER
 62
     4
 10
11.7
 20
9.375735931288073
 30
0.0
 11
11.7
 21
14.02426406871193
 31
0.0
  0
LINE
  5
CC
  8
CENTER
 62
     4
 10
9.027207793864214
 20
-10.85147186257614
 30
0.0
 11
12.67573593128807
 21
-10.85147186257614
 31
0.0
  0
LINE
  5
CD
  8
CENTER
 62
     4
 10
10.85147186257614
 20
-12.67573593128807
 30
0.0
 11
10.85147186257614
 21
-9.027207793864218
 31
0.0
  0
LINE
  5
CE
  8
CENTER
 62
     4
 10
9.375735931288073
 20
-11.7
 30
0.0
 11
14.02426406871193
 21
-11.7
 31
0.0
  0
LINE
  5
CF
  8
CENTER
 62
     4
 10
11.7
 20
-14.02426406871193
 30
0.0
 11
11.7
 21
-9.375735931288077
 31
0.0
  0
LINE
  5
D0
  8
CENTER
 62
     4
 10
-14.02426406871193
 20
11.7
 30
0.0
 11
-9.375735931288071
 21
11.7
 31
0.0
  0
LINE
  5
D1
  8
CENTER
 62
     4
 10
-11.7
 20
9.375735931288071
 30
0.0
 11
-11.7
 21
14.02426406871193
 31
0.0
  0
LINE
  5
D2
  8
CENTER
 62
     4
 10
-12.67573593128807
 20
10.85147186257614
 30
0.0
 11
-9.027207793864214
 21
10.85147186257614
 31
0.0
  0
LINE
  5
D3
  8
CENTER
 62
     4
 10
-10.85147186257614
 20
9.027207793864218
 30
0.0
 11
-10.85147186257614
 21
12.67573593128807
 31
0.0
  0
LINE
  5
D4
  8
CENTER
 62
     4
 10
-14.02426406871193
 20
-11.7
 30
0.0
 11
-9.375735931288077
 21
-11.7
 31
0.0
  0
LINE
  5
D5
  8
CENTER
 62
     4
 10
-11.7
 20
-14.02426406871193
 30
0.0
 11
-11.7
 21
-9.375735931288073
 31
0.0
  0
LINE
  5
D6
  8
CENTER
 62
     4
 10
-12.67573593128807
 20
-10.85147186257614
 30
0.0
 11
-9.027207793864218
 21
-10.85147186257614
 31
0.0
  0
LINE
  5
D7
  8
CENTER
 62
     4
 10
-10.85147186257614
 20
-12.67573593128807
 30
0.0
 11
-10.85147186257614
 21
-9.027207793864214
 31
0.0
  0
LINE
  5
D8
  8
CENTER
 62
     4
 10
-5.224264068711928
 20
-4.500000000000011
 30
0.0
 11
-3.775735931288094
 21
-4.500000000000011
 31
0.0
  0
LINE
  5
D9
  8
CENTER
 62
     4
 10
-4.500000000000012
 20
-5.224264068711928
 30
0.0
 11
-4.500000000000012
 21
-3.775735931288093
 31
0.0
  0
LINE
  5
DA
  8
CENTER
 62
     4
 10
-4.224264068711926
 20
-1.200000000000001
 30
0.0
 11
-2.775735931288072
 21
-1.200000000000001
 31
0.0
  0
LINE
  5
DB
  8
CENTER
 62
     4
 10
-3.499999999999999
 20
-1.924264068711929
 30
0.0
 11
-3.499999999999999
 21
-0.475735931288074
 31
0.0
  0
LINE
  5
DC
  8
CENTER
 62
     4
 10
-3.824264068711926
 20
0.0000000000000052
 30
0.0
 11
3.824264068711938
 21
0.0000000000000052
 31
0.0
  0
LINE
  5
DD
  8
CENTER
 62
     4
 10
0.0000000000000058
 20
-3.824264068711927
 30
0.0
 11
0.0000000000000058
 21
3.824264068711937
 31
0.0
  0
LINE
  5
DE
  8
CENTER
 62
     4
 10
-4.224264068711928
 20
1.2
 30
0.0
 11
-2.77573593128807
 21
1.2
 31
0.0
  0
LINE
  5
DF
  8
CENTER
 62
     4
 10
-3.499999999999999
 20
0.4757359312880711
 30
0.0
 11
-3.499999999999999
 21
1.924264068711929
 31
0.0
  0
LINE
  5
E0
  8
CENTER
 62
     4
 10
-5.224264068711928
 20
4.500000000000012
 30
0.0
 11
-3.775735931288093
 21
4.500000000000012
 31
0.0
  0
LINE
  5
E1
  8
CENTER
 62
     4
 10
-4.500000000000011
 20
3.775735931288094
 30
0.0
 11
-4.500000000000011
 21
5.224264068711928
 31
0.0
  0
LINE
  5
E2
  8
CENTER
 62
     4
 10
-1.924264068711928
 20
3.5
 30
0.0
 11
-0.4757359312880722
 21
3.5
 31
0.0
  0
LINE
  5
E3
  8
CENTER
 62
     4
 10
-1.2
 20
2.775735931288072
 30
0.0
 11
-1.2
 21
4.224264068711928
 31
0.0
  0
LINE
  5
E4
  8
CENTER
 62
     4
 10
0.47573593128807
 20
3.5
 30
0.0
 11
1.924264068711929
 21
3.5
 31
0.0
  0
LINE
  5
E5
  8
CENTER
 62
     4
 10
1.2
 20
2.77573593128807
 30
0.0
 11
1.2
 21
4.224264068711929
 31
0.0
  0
LINE
  5
E6
  8
CENTER
 62
     4
 10
3.775735931288094
 20
4.500000000000011
 30
0.0
 11
5.224264068711928
 21
4.500000000000011
 31
0.0
  0
LINE
  5
E7
  8
CENTER
 62
     4
 10
4.500000000000012
 20
3.775735931288093
 30
0.0
 11
4.500000000000012
 21
5.224264068711928
 31
0.0
  0
LINE
  5
E8
  8
CENTER
 62
     4
 10
2.775735931288072
 20
1.2
 30
0.0
 11
4.224264068711928
 21
1.2
 31
0.0
  0
LINE
  5
E9
  8
CENTER
 62
     4
 10
3.5
 20
0.4757359312880718
 30
0.0
 11
3.5
 21
1.924264068711928
 31
0.0
  0
LINE
  5
EA
  8
CENTER
 62
     4
 10
2.775735931288071
 20
-1.2
 30
0.0
 11
4.224264068711929
 21
-1.2
 31
0.0
  0
LINE
  5
EB
  8
CENTER
 62
     4
 10
3.5
 20
-1.924264068711929
 30
0.0
 11
3.5
 21
-0.4757359312880701
 31
0.0
  0
LINE
  5
EC
  8
CENTER
 62
     4
 10
3.775735931288093
 20
-4.500000000000012
 30
0.0
 11
5.224264068711928
 21
-4.500000000000012
 31
0.0
  0
LINE
  5
ED
  8
CENTER
 62
     4
 10
4.500000000000011
 20
-5.224264068711928
 30
0.0
 11
4.500000000000011
 21
-3.775735931288094
 31
0.0
  0
LINE
  5
EE
  8
CENTER
 62
     4
 10
0.4757359312880727
 20
-3.5
 30
0.0
 11
1.924264068711929
 21
-3.5
 31
0.0
  0
LINE
  5
EF
  8
CENTER
 62
     4
 10
1.200000000000001
 20
-4.224264068711928
 30
0.0
 11
1.200000000000001
 21
-2.775735931288072
 31
0.0
  0
LINE
  5
F0
  8
CENTER
 62
     4
 10
-1.924264068711929
 20
-3.5
 30
0.0
 11
-0.4757359312880699
 21
-3.5
 31
0.0
  0
LINE
  5
F1
  8
CENTER
 62
     4
 10
-1.199999999999999
 20
-4.224264068711929
 30
0.0
 11
-1.199999999999999
 21
-2.775735931288071
 31
0.0
  0
POINT
  5
F2
  8
VIS
 62
     1
 10
0.0
 20
0.0
 30
0.0
  0
POINT
  5
F3
  8
VIS
 62
     1
 10
0.0
 20
0.0
 30
0.0
  0
POINT
  5
F4
  8
VIS
 62
     1
 10
0.0
 20
0.0
 30
-450.0
210
0.0
220
1.224606353822377E-16
230
-1.0
  0
ATTDEF
  5
F5
  8
0
 10
0.0
 20
0.0
 30
0.0
 40
1.0
  1
MISUMI
  3

  2
Company
 70
     9
  0
ATTDEF
  5
F6
  8
0
 10
0.0
 20
0.0
 30
0.0
 40
1.0
  1
NEFS6-3030-450
  3

  2
NB
 70
     9
  0
ATTDEF
  5
F7
  8
0
 10
0.0
 20
0.0
 30
0.0
 40
1.0
  1
NEFS6-3030, NEFSB6-3030, EFS6-3030, EFSB6-3030, HFS6-3030, HFSB6-3030, CAF6-3030, HFSY6-3030, NFSL6-3030,  HFSL6-3030, HFSLB6-30
  3

  2
NN
 70
     9
  0
ATTDEF
  5
F8
  8
0
 10
0.0
 20
0.0
 30
0.0
 40
1.0
  1
HFS6 Series Aluminum Extrusions 30 Square -1 Slot-
  3

  2
NT
 70
     9
  0
ATTDEF
  5
F9
  8
0
 10
0.0
 20
0.0
 30
0.0
 40
1.0
  1
NEFS6-3030-450
  3

  2
LINA
 70
     9
  0
ATTDEF
  5
FA
  8
0
 10
0.0
 20
0.0
 30
0.0
 40
1.0
  1
NEFS6-3030-450
  3

  2
PN
 70
     9
  0
ATTDEF
  5
FB
  8
0
 10
0.0
 20
0.0
 30
0.0
 40
1.0
  1
NEFS6-3030
  3

  2
TPS
 70
     9
  0
ATTDEF
  5
FC
  8
0
 10
0.0
 20
0.0
 30
0.0
 40
1.0
  1
6063-T5 Aluminum Alloy
  3

  2
MAT
 70
     9
  0
ATTDEF
  5
FD
  8
0
 10
0.0
 20
0.0
 30
0.0
 40
1.0
  1
Clear Anodize
  3

  2
ST
 70
     9
  0
ATTDEF
  5
FE
  8
0
 10
0.0
 20
0.0
 30
0.0
 40
1.0
  1
30
  3

  2
FRMW
 70
     9
  0
ATTDEF
  5
FF
  8
0
 10
0.0
 20
0.0
 30
0.0
 40
1.0
  1
30
  3

  2
FRMH
 70
     9
  0
ATTDEF
  5
100
  8
0
 10
0.0
 20
0.0
 30
0.0
 40
1.0
  1
6.8
  3

  2
FRD
 70
     9
  0
ATTDEF
  5
101
  8
0
 10
0.0
 20
0.0
 30
0.0
 40
1.0
  1
450.0
  3

  2
L
 70
     9
  0
ATTDEF
  5
102
  8
0
 10
0.0
 20
0.0
 30
0.0
 40
1.0
  1
0.80
  3

  2
MASS
 70
     9
  0
ATTDEF
  5
103
  8
0
 10
0.0
 20
0.0
 30
0.0
 40
1.0
  1
296
  3

  2
SA
 70
     9
  0
ATTDEF
  5
104
  8
0
 10
0.0
 20
0.0
 30
0.0
 40
1.0
  1
2.85x10^ 4
  3

  2
LX
 70
     9
  0
ATTDEF
  5
105
  8
0
 10
0.0
 20
0.0
 30
0.0
 40
1.0
  1
2.85x10^ 4
  3

  2
LY
 70
     9
  0
ATTDEF
  5
106
  8
0
 10
0.0
 20
0.0
 30
0.0
 40
1.0
  1

  3

  2
ALT1
 70
     9
  0
ATTDEF
  5
107
  8
0
 10
0.0
 20
0.0
 30
0.0
 40
1.0
  1
0
  3

  2
M1
 70
     9
  0
ATTDEF
  5
108
  8
0
 10
0.0
 20
0.0
 30
0.0
 40
1.0
  1
6.647
  3

  2
IDM1
 70
     9
  0
ATTDEF
  5
109
  8
0
 10
0.0
 20
0.0
 30
0.0
 40
1.0
  1
4.200
  3

  2
DALT1
 70
     9
  0
ATTDEF
  5
10A
  8
0
 10
0.0
 20
0.0
 30
0.0
 40
1.0
  1
0
  3

  2
DPL1
 70
     9
  0
ATTDEF
  5
10B
  8
0
 10
0.0
 20
0.0
 30
0.0
 40
1.0
  1
0
  3

  2
DPR1
 70
     9
  0
ATTDEF
  5
10C
  8
0
 10
0.0
 20
0.0
 30
0.0
 40
1.0
  1

  3

  2
ALT1PN
 70
     9
  0
ATTDEF
  5
10D
  8
0
 10
0.0
 20
0.0
 30
0.0
 40
1.0
  1

  3

  2
ALT2
 70
     9
  0
ATTDEF
  5
10E
  8
0
 10
0.0
 20
0.0
 30
0.0
 40
1.0
  1
 '','w/o End Tapping (Heli-Coil Insert)','LHP','with LHP (Tapping on the Left (Heli-Coil Insert))','RHP','with RHP (Tapping on t
  3

  2
ALT2ALG
 70
     9
  0
ATTDEF
  5
10F
  8
0
 10
0.0
 20
0.0
 30
0.0
 40
1.0
  1
0
  3

  2
M2
 70
     9
  0
ATTDEF
  5
110
  8
0
 10
0.0
 20
0.0
 30
0.0
 40
1.0
  1
0
  3

  2
DP2
 70
     9
  0
ATTDEF
  5
111
  8
0
 10
0.0
 20
0.0
 30
0.0
 40
1.0
  1

  3

  2
ALT2PN
 70
     9
  0
ATTDEF
  5
112
  8
0
 10
0.0
 20
0.0
 30
0.0
 40
1.0
  1

  3

  2
ALT3
 70
     9
  0
ATTDEF
  5
113
  8
0
 10
0.0
 20
0.0
 30
0.0
 40
1.0
  1
 '','N/A' 
  3

  2
ALT3ALG
 70
     9
  0
ATTDEF
  5
114
  8
0
 10
0.0
 20
0.0
 30
0.0
 40
1.0
  1
0
  3

  2
M3
 70
     9
  0
ATTDEF
  5
115
  8
0
 10
0.0
 20
0.0
 30
0.0
 40
1.0
  1
4.134
  3

  2
IDM3
 70
     9
  0
ATTDEF
  5
116
  8
0
 10
0.0
 20
0.0
 30
0.0
 40
1.0
  1
0
  3

  2
DP3
 70
     9
  0
ATTDEF
  5
117
  8
0
 10
0.0
 20
0.0
 30
0.0
 40
1.0
  1

  3

  2
ALT3PN
 70
     9
  0
ATTDEF
  5
118
  8
0
 10
0.0
 20
0.0
 30
0.0
 40
1.0
  1

  3

  2
ALT4
 70
     9
  0
ATTDEF
  5
119
  8
0
 10
0.0
 20
0.0
 30
0.0
 40
1.0
  1
 '', 'w/o SC (High Precision Cut)', 'SC', 'with SC (High Precision Cut)' 
  3

  2
ALT4ALG
 70
     9
  0
ATTDEF
  5
11A
  8
0
 10
0.0
 20
0.0
 30
0.0
 40
1.0
  1

  3

  2
ALT4PN
 70
     9
  0
ATTDEF
  5
11B
  8
0
 10
0.0
 20
0.0
 30
0.0
 40
1.0
  1

  3

  2
ALT5
 70
     9
  0
ATTDEF
  5
11C
  8
0
 10
0.0
 20
0.0
 30
0.0
 40
1.0
  1
 '','w/o 45 Degree Cut','1','with 45 Degree Cut' 
  3

  2
ALT5ALG
 70
     9
  0
ATTDEF
  5
11D
  8
0
 10
0.0
 20
0.0
 30
0.0
 40
1.0
  1

  3

  2
CP5
 70
     9
  0
ATTDEF
  5
11E
  8
0
 10
0.0
 20
0.0
 30
0.0
 40
1.0
  1
 '','N/A' 
  3

  2
CP5ALG
 70
     9
  0
ATTDEF
  5
11F
  8
0
 10
0.0
 20
0.0
 30
0.0
 40
1.0
  1

  3

  2
DL5
 70
     9
  0
ATTDEF
  5
120
  8
0
 10
0.0
 20
0.0
 30
0.0
 40
1.0
  1
 '','N/A' 
  3

  2
DL5ALG
 70
     9
  0
ATTDEF
  5
121
  8
0
 10
0.0
 20
0.0
 30
0.0
 40
1.0
  1

  3

  2
DR5
 70
     9
  0
ATTDEF
  5
122
  8
0
 10
0.0
 20
0.0
 30
0.0
 40
1.0
  1
 '','N/A' 
  3

  2
DR5ALG
 70
     9
  0
ATTDEF
  5
123
  8
0
 10
0.0
 20
0.0
 30
0.0
 40
1.0
  1
0.000
  3

  2
FRMLALT5
 70
     9
  0
ATTDEF
  5
124
  8
0
 10
0.0
 20
0.0
 30
0.0
 40
1.0
  1
0.000
  3

  2
FRMRALT5
 70
     9
  0
ATTDEF
  5
125
  8
0
 10
0.0
 20
0.0
 30
0.0
 40
1.0
  1

  3

  2
ALT5PN
 70
     9
  0
ATTDEF
  5
126
  8
0
 10
0.0
 20
0.0
 30
0.0
 40
1.0
  1

  3

  2
ALT6
 70
     9
  0
ATTDEF
  5
127
  8
0
 10
0.0
 20
0.0
 30
0.0
 40
1.0
  1
 '','w/o Fastening Location Wrench Access Hole Alterations','1','with Fastening Location Wrench Access Hole Alterations' 
  3

  2
ALT6ALG
 70
     9
  0
ATTDEF
  5
128
  8
0
 10
0.0
 20
0.0
 30
0.0
 40
1.0
  1

  3

  2
ALT9
 70
     9
  0
ATTDEF
  5
129
  8
0
 10
0.0
 20
0.0
 30
0.0
 40
1.0
  1
 '','w/o Location Specified Wrench Access Hole Alteratons (Horizontal)','1','with Location Specified Wrench Access Hole Alterato
  3

  2
ALT9ALG
 70
     9
  0
ATTDEF
  5
12A
  8
0
 10
0.0
 20
0.0
 30
0.0
 40
1.0
  1

  3

  2
ALT10
 70
     9
  0
ATTDEF
  5
12B
  8
0
 10
0.0
 20
0.0
 30
0.0
 40
1.0
  1
 '','w/o Location Specified Wrench Access Hole Alteratons (Vertical)','1','with Location Specified Wrench Access Hole Alteratons
  3

  2
ALT10ALG
 70
     9
  0
ATTDEF
  5
12C
  8
0
 10
0.0
 20
0.0
 30
0.0
 40
1.0
  1

  3

  2
ALT11
 70
     9
  0
ATTDEF
  5
12D
  8
0
 10
0.0
 20
0.0
 30
0.0
 40
1.0
  1
 '','w/o Location Specified Wrench Access Hole Alteratons (Crisscross)','1','with Location Specified Wrench Access Hole Alterato
  3

  2
ALT11ALG
 70
     9
  0
ATTDEF
  5
12E
  8
0
 10
0.0
 20
0.0
 30
0.0
 40
1.0
  1

  3

  2
DD6SE
 70
     9
  0
ATTDEF
  5
12F
  8
0
 10
0.0
 20
0.0
 30
0.0
 40
1.0
  1
 '','N/A' 
  3

  2
DD6SEALG
 70
     9
  0
ATTDEF
  5
130
  8
0
 10
0.0
 20
0.0
 30
0.0
 40
1.0
  1
0
  3

  2
DD6
 70
     9
  0
ATTDEF
  5
131
  8
0
 10
0.0
 20
0.0
 30
0.0
 40
1.0
  1
0
  3

  2
DD6ALG
 70
     9
  0
ATTDEF
  5
132
  8
0
 10
0.0
 20
0.0
 30
0.0
 40
1.0
  1

  3

  2
HP6
 70
     9
  0
ATTDEF
  5
133
  8
0
 10
0.0
 20
0.0
 30
0.0
 40
1.0
  1
 '','N/A' 
  3

  2
HP6ALG
 70
     9
  0
ATTDEF
  5
134
  8
0
 10
0.0
 20
0.0
 30
0.0
 40
1.0
  1

  3

  2
NHL6
 70
     9
  0
ATTDEF
  5
135
  8
0
 10
0.0
 20
0.0
 30
0.0
 40
1.0
  1
 '','N/A' 
  3

  2
NHL6ALG
 70
     9
  0
ATTDEF
  5
136
  8
0
 10
0.0
 20
0.0
 30
0.0
 40
1.0
  1

  3

  2
DL6
 70
     9
  0
ATTDEF
  5
137
  8
0
 10
0.0
 20
0.0
 30
0.0
 40
1.0
  1
 '','N/A' 
  3

  2
DL6ALG
 70
     9
  0
ATTDEF
  5
138
  8
0
 10
0.0
 20
0.0
 30
0.0
 40
1.0
  1

  3

  2
NHR6
 70
     9
  0
ATTDEF
  5
139
  8
0
 10
0.0
 20
0.0
 30
0.0
 40
1.0
  1
 '','N/A' 
  3

  2
NHR6ALG
 70
     9
  0
ATTDEF
  5
13A
  8
0
 10
0.0
 20
0.0
 30
0.0
 40
1.0
  1

  3

  2
DR6
 70
     9
  0
ATTDEF
  5
13B
  8
0
 10
0.0
 20
0.0
 30
0.0
 40
1.0
  1
 '','N/A' 
  3

  2
DR6ALG
 70
     9
  0
ATTDEF
  5
13C
  8
0
 10
0.0
 20
0.0
 30
0.0
 40
1.0
  1

  3

  2
DD6PN
 70
     9
  0
ATTDEF
  5
13D
  8
0
 10
0.0
 20
0.0
 30
0.0
 40
1.0
  1
0
  3

  2
HL6
 70
     9
  0
ATTDEF
  5
13E
  8
0
 10
0.0
 20
0.0
 30
0.0
 40
1.0
  1
0
  3

  2
HL6D
 70
     9
  0
ATTDEF
  5
13F
  8
0
 10
0.0
 20
0.0
 30
0.0
 40
1.0
  1
0
  3

  2
HR6
 70
     9
  0
ATTDEF
  5
140
  8
0
 10
0.0
 20
0.0
 30
0.0
 40
1.0
  1
0
  3

  2
HR6D
 70
     9
  0
ATTDEF
  5
141
  8
0
 10
0.0
 20
0.0
 30
0.0
 40
1.0
  1
0
  3

  2
J6
 70
     9
  0
ATTDEF
  5
142
  8
0
 10
0.0
 20
0.0
 30
0.0
 40
1.0
  1
0
  3

  2
J6D
 70
     9
  0
ATTDEF
  5
143
  8
0
 10
0.0
 20
0.0
 30
0.0
 40
1.0
  1
0
  3

  2
K6
 70
     9
  0
ATTDEF
  5
144
  8
0
 10
0.0
 20
0.0
 30
0.0
 40
1.0
  1
0
  3

  2
K6D
 70
     9
  0
ATTDEF
  5
145
  8
0
 10
0.0
 20
0.0
 30
0.0
 40
1.0
  1

  3

  2
ALT7
 70
     9
  0
ATTDEF
  5
146
  8
0
 10
0.0
 20
0.0
 30
0.0
 40
1.0
  1
 '','N/A' 
  3

  2
ALT7ALG
 70
     9
  0
ATTDEF
  5
147
  8
0
 10
0.0
 20
0.0
 30
0.0
 40
1.0
  1

  3

  2
ALT8
 70
     9
  0
ATTDEF
  5
148
  8
0
 10
0.0
 20
0.0
 30
0.0
 40
1.0
  1
 '','N/A' 
  3

  2
ALT8ALG
 70
     9
  0
ATTDEF
  5
149
  8
0
 10
0.0
 20
0.0
 30
0.0
 40
1.0
  1

  3

  2
ALT678PN
 70
     9
  0
ATTDEF
  5
14A
  8
0
 10
0.0
 20
0.0
 30
0.0
 40
1.0
  1
0
  3

  2
NH9
 70
     9
  0
ATTDEF
  5
14B
  8
0
 10
0.0
 20
0.0
 30
0.0
 40
1.0
  1
5.000
  3

  2
NH9MAX
 70
     9
  0
ATTDEF
  5
14C
  8
0
 10
0.0
 20
0.0
 30
0.0
 40
1.0
  1
[0]
  3

  2
NH9ALG
 70
     9
  0
ATTDEF
  5
14D
  8
0
 10
0.0
 20
0.0
 30
0.0
 40
1.0
  1
0.0
  3

  2
AH
 70
     9
  0
ATTDEF
  5
14E
  8
0
 10
0.0
 20
0.0
 30
0.0
 40
1.0
  1
7.000
  3

  2
AHMIN
 70
     9
  0
ATTDEF
  5
14F
  8
0
 10
0.0
 20
0.0
 30
0.0
 40
1.0
  1
445.000
  3

  2
AHMAX
 70
     9
  0
ATTDEF
  5
150
  8
0
 10
0.0
 20
0.0
 30
0.0
 40
1.0
  1
[0]
  3

  2
AHALG
 70
     9
  0
ATTDEF
  5
151
  8
0
 10
0.0
 20
0.0
 30
0.0
 40
1.0
  1
0.0
  3

  2
BH
 70
     9
  0
ATTDEF
  5
152
  8
0
 10
0.0
 20
0.0
 30
0.0
 40
1.0
  1
2.000
  3

  2
BHMIN
 70
     9
  0
ATTDEF
  5
153
  8
0
 10
0.0
 20
0.0
 30
0.0
 40
1.0
  1
447.000
  3

  2
BHMAX
 70
     9
  0
ATTDEF
  5
154
  8
0
 10
0.0
 20
0.0
 30
0.0
 40
1.0
  1
[0]
  3

  2
BHALG
 70
     9
  0
ATTDEF
  5
155
  8
0
 10
0.0
 20
0.0
 30
0.0
 40
1.0
  1
0.0
  3

  2
CH
 70
     9
  0
ATTDEF
  5
156
  8
0
 10
0.0
 20
0.0
 30
0.0
 40
1.0
  1
2.000
  3

  2
CHMIN
 70
     9
  0
ATTDEF
  5
157
  8
0
 10
0.0
 20
0.0
 30
0.0
 40
1.0
  1
449.000
  3

  2
CHMAX
 70
     9
  0
ATTDEF
  5
158
  8
0
 10
0.0
 20
0.0
 30
0.0
 40
1.0
  1
[0]
  3

  2
CHALG
 70
     9
  0
ATTDEF
  5
159
  8
0
 10
0.0
 20
0.0
 30
0.0
 40
1.0
  1
0.0
  3

  2
DH
 70
     9
  0
ATTDEF
  5
15A
  8
0
 10
0.0
 20
0.0
 30
0.0
 40
1.0
  1
2.000
  3

  2
DHMIN
 70
     9
  0
ATTDEF
  5
15B
  8
0
 10
0.0
 20
0.0
 30
0.0
 40
1.0
  1
451.000
  3

  2
DHMAX
 70
     9
  0
ATTDEF
  5
15C
  8
0
 10
0.0
 20
0.0
 30
0.0
 40
1.0
  1
[0]
  3

  2
DHALG
 70
     9
  0
ATTDEF
  5
15D
  8
0
 10
0.0
 20
0.0
 30
0.0
 40
1.0
  1
0.0
  3

  2
EH
 70
     9
  0
ATTDEF
  5
15E
  8
0
 10
0.0
 20
0.0
 30
0.0
 40
1.0
  1
2.000
  3

  2
EHMIN
 70
     9
  0
ATTDEF
  5
15F
  8
0
 10
0.0
 20
0.0
 30
0.0
 40
1.0
  1
443.000
  3

  2
EHMAX
 70
     9
  0
ATTDEF
  5
160
  8
0
 10
0.0
 20
0.0
 30
0.0
 40
1.0
  1
[0]
  3

  2
EHALG
 70
     9
  0
ATTDEF
  5
161
  8
0
 10
0.0
 20
0.0
 30
0.0
 40
1.0
  1
0
  3

  2
NH10
 70
     9
  0
ATTDEF
  5
162
  8
0
 10
0.0
 20
0.0
 30
0.0
 40
1.0
  1
5.000
  3

  2
NH10MAX
 70
     9
  0
ATTDEF
  5
163
  8
0
 10
0.0
 20
0.0
 30
0.0
 40
1.0
  1
[0]
  3

  2
NH10ALG
 70
     9
  0
ATTDEF
  5
164
  8
0
 10
0.0
 20
0.0
 30
0.0
 40
1.0
  1
0.0
  3

  2
AV
 70
     9
  0
ATTDEF
  5
165
  8
0
 10
0.0
 20
0.0
 30
0.0
 40
1.0
  1
7.000
  3

  2
AVMIN
 70
     9
  0
ATTDEF
  5
166
  8
0
 10
0.0
 20
0.0
 30
0.0
 40
1.0
  1
445.000
  3

  2
AVMAX
 70
     9
  0
ATTDEF
  5
167
  8
0
 10
0.0
 20
0.0
 30
0.0
 40
1.0
  1
[0]
  3

  2
AVALG
 70
     9
  0
ATTDEF
  5
168
  8
0
 10
0.0
 20
0.0
 30
0.0
 40
1.0
  1
0.0
  3

  2
BV
 70
     9
  0
ATTDEF
  5
169
  8
0
 10
0.0
 20
0.0
 30
0.0
 40
1.0
  1
2.000
  3

  2
BVMIN
 70
     9
  0
ATTDEF
  5
16A
  8
0
 10
0.0
 20
0.0
 30
0.0
 40
1.0
  1
447.000
  3

  2
BVMAX
 70
     9
  0
ATTDEF
  5
16B
  8
0
 10
0.0
 20
0.0
 30
0.0
 40
1.0
  1
[0]
  3

  2
BVALG
 70
     9
  0
ATTDEF
  5
16C
  8
0
 10
0.0
 20
0.0
 30
0.0
 40
1.0
  1
0.0
  3

  2
CV
 70
     9
  0
ATTDEF
  5
16D
  8
0
 10
0.0
 20
0.0
 30
0.0
 40
1.0
  1
2.000
  3

  2
CVMIN
 70
     9
  0
ATTDEF
  5
16E
  8
0
 10
0.0
 20
0.0
 30
0.0
 40
1.0
  1
449.000
  3

  2
CVMAX
 70
     9
  0
ATTDEF
  5
16F
  8
0
 10
0.0
 20
0.0
 30
0.0
 40
1.0
  1
[0]
  3

  2
CVALG
 70
     9
  0
ATTDEF
  5
170
  8
0
 10
0.0
 20
0.0
 30
0.0
 40
1.0
  1
0.0
  3

  2
DV
 70
     9
  0
ATTDEF
  5
171
  8
0
 10
0.0
 20
0.0
 30
0.0
 40
1.0
  1
2.000
  3

  2
DVMIN
 70
     9
  0
ATTDEF
  5
172
  8
0
 10
0.0
 20
0.0
 30
0.0
 40
1.0
  1
451.000
  3

  2
DVMAX
 70
     9
  0
ATTDEF
  5
173
  8
0
 10
0.0
 20
0.0
 30
0.0
 40
1.0
  1
[0]
  3

  2
DVALG
 70
     9
  0
ATTDEF
  5
174
  8
0
 10
0.0
 20
0.0
 30
0.0
 40
1.0
  1
0.0
  3

  2
EV
 70
     9
  0
ATTDEF
  5
175
  8
0
 10
0.0
 20
0.0
 30
0.0
 40
1.0
  1
2.000
  3

  2
EVMIN
 70
     9
  0
ATTDEF
  5
176
  8
0
 10
0.0
 20
0.0
 30
0.0
 40
1.0
  1
443.000
  3

  2
EVMAX
 70
     9
  0
ATTDEF
  5
177
  8
0
 10
0.0
 20
0.0
 30
0.0
 40
1.0
  1
[0]
  3

  2
EVALG
 70
     9
  0
ATTDEF
  5
178
  8
0
 10
0.0
 20
0.0
 30
0.0
 40
1.0
  1
0
  3

  2
NH11
 70
     9
  0
ATTDEF
  5
179
  8
0
 10
0.0
 20
0.0
 30
0.0
 40
1.0
  1
5.000
  3

  2
NH11MAX
 70
     9
  0
ATTDEF
  5
17A
  8
0
 10
0.0
 20
0.0
 30
0.0
 40
1.0
  1
[0]
  3

  2
NH11ALG
 70
     9
  0
ATTDEF
  5
17B
  8
0
 10
0.0
 20
0.0
 30
0.0
 40
1.0
  1
0.0
  3

  2
AP
 70
     9
  0
ATTDEF
  5
17C
  8
0
 10
0.0
 20
0.0
 30
0.0
 40
1.0
  1
7.000
  3

  2
APMIN
 70
     9
  0
ATTDEF
  5
17D
  8
0
 10
0.0
 20
0.0
 30
0.0
 40
1.0
  1
445.000
  3

  2
APMAX
 70
     9
  0
ATTDEF
  5
17E
  8
0
 10
0.0
 20
0.0
 30
0.0
 40
1.0
  1
[0]
  3

  2
APALG
 70
     9
  0
ATTDEF
  5
17F
  8
0
 10
0.0
 20
0.0
 30
0.0
 40
1.0
  1
0.0
  3

  2
BP
 70
     9
  0
ATTDEF
  5
180
  8
0
 10
0.0
 20
0.0
 30
0.0
 40
1.0
  1
2.000
  3

  2
BPMIN
 70
     9
  0
ATTDEF
  5
181
  8
0
 10
0.0
 20
0.0
 30
0.0
 40
1.0
  1
447.000
  3

  2
BPMAX
 70
     9
  0
ATTDEF
  5
182
  8
0
 10
0.0
 20
0.0
 30
0.0
 40
1.0
  1
[0]
  3

  2
BPALG
 70
     9
  0
ATTDEF
  5
183
  8
0
 10
0.0
 20
0.0
 30
0.0
 40
1.0
  1
0.0
  3

  2
CP
 70
     9
  0
ATTDEF
  5
184
  8
0
 10
0.0
 20
0.0
 30
0.0
 40
1.0
  1
2.000
  3

  2
CPMIN
 70
     9
  0
ATTDEF
  5
185
  8
0
 10
0.0
 20
0.0
 30
0.0
 40
1.0
  1
449.000
  3

  2
CPMAX
 70
     9
  0
ATTDEF
  5
186
  8
0
 10
0.0
 20
0.0
 30
0.0
 40
1.0
  1
[0]
  3

  2
CPALG
 70
     9
  0
ATTDEF
  5
187
  8
0
 10
0.0
 20
0.0
 30
0.0
 40
1.0
  1
0.0
  3

  2
DP
 70
     9
  0
ATTDEF
  5
188
  8
0
 10
0.0
 20
0.0
 30
0.0
 40
1.0
  1
2.000
  3

  2
DPMIN
 70
     9
  0
ATTDEF
  5
189
  8
0
 10
0.0
 20
0.0
 30
0.0
 40
1.0
  1
451.000
  3

  2
DPMAX
 70
     9
  0
ATTDEF
  5
18A
  8
0
 10
0.0
 20
0.0
 30
0.0
 40
1.0
  1
[0]
  3

  2
DPALG
 70
     9
  0
ATTDEF
  5
18B
  8
0
 10
0.0
 20
0.0
 30
0.0
 40
1.0
  1
0.0
  3

  2
EP
 70
     9
  0
ATTDEF
  5
18C
  8
0
 10
0.0
 20
0.0
 30
0.0
 40
1.0
  1
2.000
  3

  2
EPMIN
 70
     9
  0
ATTDEF
  5
18D
  8
0
 10
0.0
 20
0.0
 30
0.0
 40
1.0
  1
443.000
  3

  2
EPMAX
 70
     9
  0
ATTDEF
  5
18E
  8
0
 10
0.0
 20
0.0
 30
0.0
 40
1.0
  1
[0]
  3

  2
EPALG
 70
     9
  0
ATTDEF
  5
18F
  8
0
 10
0.0
 20
0.0
 30
0.0
 40
1.0
  1

  3

  2
ALT9PN
 70
     9
  0
ATTDEF
  5
190
  8
0
 10
0.0
 20
0.0
 30
0.0
 40
1.0
  1

  3

  2
ALT10PN
 70
     9
  0
ATTDEF
  5
191
  8
0
 10
0.0
 20
0.0
 30
0.0
 40
1.0
  1

  3

  2
ALT11PN
 70
     9
  0
ATTDEF
  5
192
  8
0
 10
0.0
 20
0.0
 30
0.0
 40
1.0
  1

  3

  2
ALT91011PN
 70
     9
  0
ATTDEF
  5
193
  8
0
 10
0.0
 20
0.0
 30
0.0
 40
1.0
  1

  3

  2
ALT12
 70
     9
  0
ATTDEF
  5
194
  8
0
 10
0.0
 20
0.0
 30
0.0
 40
1.0
  1
 '','w/o Counterbore Hole in Specified Position (Vertical)','1','with Counterbore Hole in Specified Position (Vertical)' 
  3

  2
ALT12ALG
 70
     9
  0
ATTDEF
  5
195
  8
0
 10
0.0
 20
0.0
 30
0.0
 40
1.0
  1

  3

  2
ALT13
 70
     9
  0
ATTDEF
  5
196
  8
0
 10
0.0
 20
0.0
 30
0.0
 40
1.0
  1
 '','w/o Counterbore Hole in Specified Position (Horizontal)','1','with Counterbore Hole in Specified Position (Horizontal)' 
  3

  2
ALT13ALG
 70
     9
  0
ATTDEF
  5
197
  8
0
 10
0.0
 20
0.0
 30
0.0
 40
1.0
  1

  3

  2
Z
 70
     9
  0
ATTDEF
  5
198
  8
0
 10
0.0
 20
0.0
 30
0.0
 40
1.0
  1
 '','N/A' 
  3

  2
ZALG
 70
     9
  0
ATTDEF
  5
199
  8
0
 10
0.0
 20
0.0
 30
0.0
 40
1.0
  1
0.0
  3

  2
DD12
 70
     9
  0
ATTDEF
  5
19A
  8
0
 10
0.0
 20
0.0
 30
0.0
 40
1.0
  1
0.0
  3

  2
DD112
 70
     9
  0
ATTDEF
  5
19B
  8
0
 10
0.0
 20
0.0
 30
0.0
 40
1.0
  1
0
  3

  2
NH12
 70
     9
  0
ATTDEF
  5
19C
  8
0
 10
0.0
 20
0.0
 30
0.0
 40
1.0
  1
5.000
  3

  2
NH12MAX
 70
     9
  0
ATTDEF
  5
19D
  8
0
 10
0.0
 20
0.0
 30
0.0
 40
1.0
  1
[0]
  3

  2
NH12ALG
 70
     9
  0
ATTDEF
  5
19E
  8
0
 10
0.0
 20
0.0
 30
0.0
 40
1.0
  1
0.0
  3

  2
XA
 70
     9
  0
ATTDEF
  5
19F
  8
0
 10
0.0
 20
0.0
 30
0.0
 40
1.0
  1
7.000
  3

  2
XAMIN
 70
     9
  0
ATTDEF
  5
1A0
  8
0
 10
0.0
 20
0.0
 30
0.0
 40
1.0
  1
445.000
  3

  2
XAMAX
 70
     9
  0
ATTDEF
  5
1A1
  8
0
 10
0.0
 20
0.0
 30
0.0
 40
1.0
  1
[0]
  3

  2
XAALG
 70
     9
  0
ATTDEF
  5
1A2
  8
0
 10
0.0
 20
0.0
 30
0.0
 40
1.0
  1
0.0
  3

  2
XB
 70
     9
  0
ATTDEF
  5
1A3
  8
0
 10
0.0
 20
0.0
 30
0.0
 40
1.0
  1
2.000
  3

  2
XBMIN
 70
     9
  0
ATTDEF
  5
1A4
  8
0
 10
0.0
 20
0.0
 30
0.0
 40
1.0
  1
447.000
  3

  2
XBMAX
 70
     9
  0
ATTDEF
  5
1A5
  8
0
 10
0.0
 20
0.0
 30
0.0
 40
1.0
  1
[0]
  3

  2
XBALG
 70
     9
  0
ATTDEF
  5
1A6
  8
0
 10
0.0
 20
0.0
 30
0.0
 40
1.0
  1
0.0
  3

  2
XC
 70
     9
  0
ATTDEF
  5
1A7
  8
0
 10
0.0
 20
0.0
 30
0.0
 40
1.0
  1
2.000
  3

  2
XCMIN
 70
     9
  0
ATTDEF
  5
1A8
  8
0
 10
0.0
 20
0.0
 30
0.0
 40
1.0
  1
449.000
  3

  2
XCMAX
 70
     9
  0
ATTDEF
  5
1A9
  8
0
 10
0.0
 20
0.0
 30
0.0
 40
1.0
  1
[0]
  3

  2
XCALG
 70
     9
  0
ATTDEF
  5
1AA
  8
0
 10
0.0
 20
0.0
 30
0.0
 40
1.0
  1
0.0
  3

  2
XD
 70
     9
  0
ATTDEF
  5
1AB
  8
0
 10
0.0
 20
0.0
 30
0.0
 40
1.0
  1
2.000
  3

  2
XDMIN
 70
     9
  0
ATTDEF
  5
1AC
  8
0
 10
0.0
 20
0.0
 30
0.0
 40
1.0
  1
451.000
  3

  2
XDMAX
 70
     9
  0
ATTDEF
  5
1AD
  8
0
 10
0.0
 20
0.0
 30
0.0
 40
1.0
  1
[0]
  3

  2
XDALG
 70
     9
  0
ATTDEF
  5
1AE
  8
0
 10
0.0
 20
0.0
 30
0.0
 40
1.0
  1
0.0
  3

  2
XE
 70
     9
  0
ATTDEF
  5
1AF
  8
0
 10
0.0
 20
0.0
 30
0.0
 40
1.0
  1
2.000
  3

  2
XEMIN
 70
     9
  0
ATTDEF
  5
1B0
  8
0
 10
0.0
 20
0.0
 30
0.0
 40
1.0
  1
443.000
  3

  2
XEMAX
 70
     9
  0
ATTDEF
  5
1B1
  8
0
 10
0.0
 20
0.0
 30
0.0
 40
1.0
  1
[0]
  3

  2
XEALG
 70
     9
  0
ATTDEF
  5
1B2
  8
0
 10
0.0
 20
0.0
 30
0.0
 40
1.0
  1
0
  3

  2
NH13
 70
     9
  0
ATTDEF
  5
1B3
  8
0
 10
0.0
 20
0.0
 30
0.0
 40
1.0
  1
5.000
  3

  2
NH13MAX
 70
     9
  0
ATTDEF
  5
1B4
  8
0
 10
0.0
 20
0.0
 30
0.0
 40
1.0
  1
[0]
  3

  2
NH13ALG
 70
     9
  0
ATTDEF
  5
1B5
  8
0
 10
0.0
 20
0.0
 30
0.0
 40
1.0
  1
0.0
  3

  2
YA
 70
     9
  0
ATTDEF
  5
1B6
  8
0
 10
0.0
 20
0.0
 30
0.0
 40
1.0
  1
7.000
  3

  2
YAMIN
 70
     9
  0
ATTDEF
  5
1B7
  8
0
 10
0.0
 20
0.0
 30
0.0
 40
1.0
  1
445.000
  3

  2
YAMAX
 70
     9
  0
ATTDEF
  5
1B8
  8
0
 10
0.0
 20
0.0
 30
0.0
 40
1.0
  1
[0]
  3

  2
YAALG
 70
     9
  0
ATTDEF
  5
1B9
  8
0
 10
0.0
 20
0.0
 30
0.0
 40
1.0
  1
0.0
  3

  2
YB
 70
     9
  0
ATTDEF
  5
1BA
  8
0
 10
0.0
 20
0.0
 30
0.0
 40
1.0
  1
2.000
  3

  2
YBMIN
 70
     9
  0
ATTDEF
  5
1BB
  8
0
 10
0.0
 20
0.0
 30
0.0
 40
1.0
  1
447.000
  3

  2
YBMAX
 70
     9
  0
ATTDEF
  5
1BC
  8
0
 10
0.0
 20
0.0
 30
0.0
 40
1.0
  1
[0]
  3

  2
YBALG
 70
     9
  0
ATTDEF
  5
1BD
  8
0
 10
0.0
 20
0.0
 30
0.0
 40
1.0
  1
0.0
  3

  2
YC
 70
     9
  0
ATTDEF
  5
1BE
  8
0
 10
0.0
 20
0.0
 30
0.0
 40
1.0
  1
2.000
  3

  2
YCMIN
 70
     9
  0
ATTDEF
  5
1BF
  8
0
 10
0.0
 20
0.0
 30
0.0
 40
1.0
  1
449.000
  3

  2
YCMAX
 70
     9
  0
ATTDEF
  5
1C0
  8
0
 10
0.0
 20
0.0
 30
0.0
 40
1.0
  1
[0]
  3

  2
YCALG
 70
     9
  0
ATTDEF
  5
1C1
  8
0
 10
0.0
 20
0.0
 30
0.0
 40
1.0
  1
0.0
  3

  2
YD
 70
     9
  0
ATTDEF
  5
1C2
  8
0
 10
0.0
 20
0.0
 30
0.0
 40
1.0
  1
2.000
  3

  2
YDMIN
 70
     9
  0
ATTDEF
  5
1C3
  8
0
 10
0.0
 20
0.0
 30
0.0
 40
1.0
  1
451.000
  3

  2
YDMAX
 70
     9
  0
ATTDEF
  5
1C4
  8
0
 10
0.0
 20
0.0
 30
0.0
 40
1.0
  1
[0]
  3

  2
YDALG
 70
     9
  0
ATTDEF
  5
1C5
  8
0
 10
0.0
 20
0.0
 30
0.0
 40
1.0
  1
0.0
  3

  2
YE
 70
     9
  0
ATTDEF
  5
1C6
  8
0
 10
0.0
 20
0.0
 30
0.0
 40
1.0
  1
2.000
  3

  2
YEMIN
 70
     9
  0
ATTDEF
  5
1C7
  8
0
 10
0.0
 20
0.0
 30
0.0
 40
1.0
  1
443.000
  3

  2
YEMAX
 70
     9
  0
ATTDEF
  5
1C8
  8
0
 10
0.0
 20
0.0
 30
0.0
 40
1.0
  1
[0]
  3

  2
YEALG
 70
     9
  0
ATTDEF
  5
1C9
  8
0
 10
0.0
 20
0.0
 30
0.0
 40
1.0
  1

  3

  2
ALT12PN
 70
     9
  0
ATTDEF
  5
1CA
  8
0
 10
0.0
 20
0.0
 30
0.0
 40
1.0
  1

  3

  2
ALT13PN
 70
     9
  0
ATTDEF
  5
1CB
  8
0
 10
0.0
 20
0.0
 30
0.0
 40
1.0
  1

  3

  2
ALT1213PN
 70
     9
  0
ATTDEF
  5
1CC
  8
0
 10
0.0
 20
0.0
 30
0.0
 40
1.0
  1

  3

  2
ALT14
 70
     9
  0
ATTDEF
  5
1CD
  8
0
 10
0.0
 20
0.0
 30
0.0
 40
1.0
  1
 '','w/o D Type Hole Alteration','1','with D Type Hole Alteration' 
  3

  2
ALT14ALG
 70
     9
  0
ATTDEF
  5
1CE
  8
0
 10
0.0
 20
0.0
 30
0.0
 40
1.0
  1

  3

  2
HP14
 70
     9
  0
ATTDEF
  5
1CF
  8
0
 10
0.0
 20
0.0
 30
0.0
 40
1.0
  1
 '','N/A' 
  3

  2
HP14ALG
 70
     9
  0
ATTDEF
  5
1D0
  8
0
 10
0.0
 20
0.0
 30
0.0
 40
1.0
  1

  3

  2
DL14
 70
     9
  0
ATTDEF
  5
1D1
  8
0
 10
0.0
 20
0.0
 30
0.0
 40
1.0
  1
 '','N/A' 
  3

  2
DL14ALG
 70
     9
  0
ATTDEF
  5
1D2
  8
0
 10
0.0
 20
0.0
 30
0.0
 40
1.0
  1

  3

  2
DR14
 70
     9
  0
ATTDEF
  5
1D3
  8
0
 10
0.0
 20
0.0
 30
0.0
 40
1.0
  1
 '','N/A' 
  3

  2
DR14ALG
 70
     9
  0
ATTDEF
  5
1D4
  8
0
 10
0.0
 20
0.0
 30
0.0
 40
1.0
  1
0
  3

  2
H14
 70
     9
  0
ATTDEF
  5
1D5
  8
0
 10
0.0
 20
0.0
 30
0.0
 40
1.0
  1
0.0
  3

  2
D14
 70
     9
  0
ATTDEF
  5
1D6
  8
0
 10
0.0
 20
0.0
 30
0.0
 40
1.0
  1

  3

  2
ALT14PN
 70
     9
  0
ATTDEF
  5
1D7
  8
0
 10
0.0
 20
0.0
 30
0.0
 40
1.0
  1

  3

  2
ALT15
 70
     9
  0
ATTDEF
  5
1D8
  8
0
 10
0.0
 20
0.0
 30
0.0
 40
1.0
  1
 '','w/o S Type Hole Alteration','1','with S Type Hole Alteration' 
  3

  2
ALT15ALG
 70
     9
  0
ATTDEF
  5
1D9
  8
0
 10
0.0
 20
0.0
 30
0.0
 40
1.0
  1

  3

  2
HP15
 70
     9
  0
ATTDEF
  5
1DA
  8
0
 10
0.0
 20
0.0
 30
0.0
 40
1.0
  1
 '','N/A' 
  3

  2
HP15ALG
 70
     9
  0
ATTDEF
  5
1DB
  8
0
 10
0.0
 20
0.0
 30
0.0
 40
1.0
  1

  3

  2
DL15
 70
     9
  0
ATTDEF
  5
1DC
  8
0
 10
0.0
 20
0.0
 30
0.0
 40
1.0
  1
 '','N/A' 
  3

  2
DL15ALG
 70
     9
  0
ATTDEF
  5
1DD
  8
0
 10
0.0
 20
0.0
 30
0.0
 40
1.0
  1

  3

  2
DR15
 70
     9
  0
ATTDEF
  5
1DE
  8
0
 10
0.0
 20
0.0
 30
0.0
 40
1.0
  1
 '','N/A' 
  3

  2
DR15ALG
 70
     9
  0
ATTDEF
  5
1DF
  8
0
 10
0.0
 20
0.0
 30
0.0
 40
1.0
  1
0
  3

  2
H15
 70
     9
  0
ATTDEF
  5
1E0
  8
0
 10
0.0
 20
0.0
 30
0.0
 40
1.0
  1
0.0
  3

  2
D115
 70
     9
  0
ATTDEF
  5
1E1
  8
0
 10
0.0
 20
0.0
 30
0.0
 40
1.0
  1
0.0
  3

  2
D215
 70
     9
  0
ATTDEF
  5
1E2
  8
0
 10
0.0
 20
0.0
 30
0.0
 40
1.0
  1

  3

  2
ALT15PN
 70
     9
  0
ATTDEF
  5
1E3
  8
0
 10
0.0
 20
0.0
 30
0.0
 40
1.0
  1

  3

  2
ALT16
 70
     9
  0
ATTDEF
  5
1E4
  8
0
 10
0.0
 20
0.0
 30
0.0
 40
1.0
  1
 '','w/o M Type Hole Alteration','1','with M Type Hole Alteration' 
  3

  2
ALT16ALG
 70
     9
  0
ATTDEF
  5
1E5
  8
0
 10
0.0
 20
0.0
 30
0.0
 40
1.0
  1

  3

  2
HP16
 70
     9
  0
ATTDEF
  5
1E6
  8
0
 10
0.0
 20
0.0
 30
0.0
 40
1.0
  1
 '','N/A' 
  3

  2
HP16ALG
 70
     9
  0
ATTDEF
  5
1E7
  8
0
 10
0.0
 20
0.0
 30
0.0
 40
1.0
  1

  3

  2
DL16
 70
     9
  0
ATTDEF
  5
1E8
  8
0
 10
0.0
 20
0.0
 30
0.0
 40
1.0
  1
 '','N/A' 
  3

  2
DL16ALG
 70
     9
  0
ATTDEF
  5
1E9
  8
0
 10
0.0
 20
0.0
 30
0.0
 40
1.0
  1

  3

  2
DR16
 70
     9
  0
ATTDEF
  5
1EA
  8
0
 10
0.0
 20
0.0
 30
0.0
 40
1.0
  1
 '','N/A' 
  3

  2
DR16ALG
 70
     9
  0
ATTDEF
  5
1EB
  8
0
 10
0.0
 20
0.0
 30
0.0
 40
1.0
  1
0
  3

  2
H116
 70
     9
  0
ATTDEF
  5
1EC
  8
0
 10
0.0
 20
0.0
 30
0.0
 40
1.0
  1
0.0
  3

  2
D16
 70
     9
  0
ATTDEF
  5
1ED
  8
0
 10
0.0
 20
0.0
 30
0.0
 40
1.0
  1

  3

  2
ALT16PN
 70
     9
  0
ATTDEF
  5
1EE
  8
0
 10
0.0
 20
0.0
 30
0.0
 40
1.0
  1

  3

  2
ALT17
 70
     9
  0
ATTDEF
  5
1EF
  8
0
 10
0.0
 20
0.0
 30
0.0
 40
1.0
  1
 '','w/o L Type Hole Alteration (Top)','1','with L Type Hole Alteration (Top)' 
  3

  2
ALT17ALG
 70
     9
  0
ATTDEF
  5
1F0
  8
0
 10
0.0
 20
0.0
 30
0.0
 40
1.0
  1
0
  3

  2
HQ17
 70
     9
  0
ATTDEF
  5
1F1
  8
0
 10
0.0
 20
0.0
 30
0.0
 40
1.0
  1
0
  3

  2
HQ17ALG
 70
     9
  0
ATTDEF
  5
1F2
  8
0
 10
0.0
 20
0.0
 30
0.0
 40
1.0
  1
0
  3

  2
JLP
 70
     9
  0
ATTDEF
  5
1F3
  8
0
 10
0.0
 20
0.0
 30
0.0
 40
1.0
  1
4.900
  3

  2
JLPMIN
 70
     9
  0
ATTDEF
  5
1F4
  8
0
 10
0.0
 20
0.0
 30
0.0
 40
1.0
  1
0.000
  3

  2
JLPMAX
 70
     9
  0
ATTDEF
  5
1F5
  8
0
 10
0.0
 20
0.0
 30
0.0
 40
1.0
  1
[0]
  3

  2
JLPALG
 70
     9
  0
ATTDEF
  5
1F6
  8
0
 10
0.0
 20
0.0
 30
0.0
 40
1.0
  1
0.000
  3

  2
L17
 70
     9
  0
ATTDEF
  5
1F7
  8
0
 10
0.0
 20
0.0
 30
0.0
 40
1.0
  1
0.0
  3

  2
D17
 70
     9
  0
ATTDEF
  5
1F8
  8
0
 10
0.0
 20
0.0
 30
0.0
 40
1.0
  1

  3

  2
ALT17PN
 70
     9
  0
ATTDEF
  5
1F9
  8
0
 10
0.0
 20
0.0
 30
0.0
 40
1.0
  1

  3

  2
ALT19
 70
     9
  0
ATTDEF
  5
1FA
  8
0
 10
0.0
 20
0.0
 30
0.0
 40
1.0
  1
 '','N/A' 
  3

  2
ALT19ALG
 70
     9
  0
ATTDEF
  5
1FB
  8
0
 10
0.0
 20
0.0
 30
0.0
 40
1.0
  1
0
  3

  2
M19
 70
     9
  0
ATTDEF
  5
1FC
  8
0
 10
0.0
 20
0.0
 30
0.0
 40
1.0
  1
0
  3

  2
DP19
 70
     9
  0
ATTDEF
  5
1FD
  8
0
 10
0.0
 20
0.0
 30
0.0
 40
1.0
  1

  3

  2
ALT19PN
 70
     9
  0
ATTDEF
  5
1FE
  8
0
 10
0.0
 20
0.0
 30
0.0
 40
1.0
  1

  3

  2
ALT20
 70
     9
  0
ATTDEF
  5
1FF
  8
0
 10
0.0
 20
0.0
 30
0.0
 40
1.0
  1

  3

  2
ALT20PN
 70
     9
  0
ATTDEF
  5
200
  8
0
 10
0.0
 20
0.0
 30
0.0
 40
1.0
  1
OK
  3

  2
ERRORALT01
 70
     9
  0
ATTDEF
  5
201
  8
0
 10
0.0
 20
0.0
 30
0.0
 40
1.0
  1
OK
  3

  2
ERRORALT02
 70
     9
  0
ATTDEF
  5
202
  8
0
 10
0.0
 20
0.0
 30
0.0
 40
1.0
  1
OK
  3

  2
ERRORALT03
 70
     9
  0
ATTDEF
  5
203
  8
0
 10
0.0
 20
0.0
 30
0.0
 40
1.0
  1
OK
  3

  2
ERRORALT05
 70
     9
  0
ATTDEF
  5
204
  8
0
 10
0.0
 20
0.0
 30
0.0
 40
1.0
  1
OK
  3

  2
ERRORALT06091
 70
     9
  0
ATTDEF
  5
205
  8
0
 10
0.0
 20
0.0
 30
0.0
 40
1.0
  1
OK
  3

  2
ERRORALT06092
 70
     9
  0
ATTDEF
  5
206
  8
0
 10
0.0
 20
0.0
 30
0.0
 40
1.0
  1
OK
  3

  2
ERRORALT06093
 70
     9
  0
ATTDEF
  5
207
  8
0
 10
0.0
 20
0.0
 30
0.0
 40
1.0
  1
OK
  3

  2
ERRORALT06094
 70
     9
  0
ATTDEF
  5
208
  8
0
 10
0.0
 20
0.0
 30
0.0
 40
1.0
  1
OK
  3

  2
ERRORALT06101
 70
     9
  0
ATTDEF
  5
209
  8
0
 10
0.0
 20
0.0
 30
0.0
 40
1.0
  1
OK
  3

  2
ERRORALT06102
 70
     9
  0
ATTDEF
  5
20A
  8
0
 10
0.0
 20
0.0
 30
0.0
 40
1.0
  1
OK
  3

  2
ERRORALT06103
 70
     9
  0
ATTDEF
  5
20B
  8
0
 10
0.0
 20
0.0
 30
0.0
 40
1.0
  1
OK
  3

  2
ERRORALT06104
 70
     9
  0
ATTDEF
  5
20C
  8
0
 10
0.0
 20
0.0
 30
0.0
 40
1.0
  1
OK
  3

  2
ERRORALT06111
 70
     9
  0
ATTDEF
  5
20D
  8
0
 10
0.0
 20
0.0
 30
0.0
 40
1.0
  1
OK
  3

  2
ERRORALT06112
 70
     9
  0
ATTDEF
  5
20E
  8
0
 10
0.0
 20
0.0
 30
0.0
 40
1.0
  1
OK
  3

  2
ERRORALT06113
 70
     9
  0
ATTDEF
  5
20F
  8
0
 10
0.0
 20
0.0
 30
0.0
 40
1.0
  1
OK
  3

  2
ERRORALT06114
 70
     9
  0
ATTDEF
  5
210
  8
0
 10
0.0
 20
0.0
 30
0.0
 40
1.0
  1
OK
  3

  2
ERRORALT06121
 70
     9
  0
ATTDEF
  5
211
  8
0
 10
0.0
 20
0.0
 30
0.0
 40
1.0
  1
OK
  3

  2
ERRORALT06122
 70
     9
  0
ATTDEF
  5
212
  8
0
 10
0.0
 20
0.0
 30
0.0
 40
1.0
  1
OK
  3

  2
ERRORALT06123
 70
     9
  0
ATTDEF
  5
213
  8
0
 10
0.0
 20
0.0
 30
0.0
 40
1.0
  1
OK
  3

  2
ERRORALT06124
 70
     9
  0
ATTDEF
  5
214
  8
0
 10
0.0
 20
0.0
 30
0.0
 40
1.0
  1
OK
  3

  2
ERRORALT06131
 70
     9
  0
ATTDEF
  5
215
  8
0
 10
0.0
 20
0.0
 30
0.0
 40
1.0
  1
OK
  3

  2
ERRORALT06132
 70
     9
  0
ATTDEF
  5
216
  8
0
 10
0.0
 20
0.0
 30
0.0
 40
1.0
  1
OK
  3

  2
ERRORALT06133
 70
     9
  0
ATTDEF
  5
217
  8
0
 10
0.0
 20
0.0
 30
0.0
 40
1.0
  1
OK
  3

  2
ERRORALT06134
 70
     9
  0
ATTDEF
  5
218
  8
0
 10
0.0
 20
0.0
 30
0.0
 40
1.0
  1
OK
  3

  2
ERRORALT0614
 70
     9
  0
ATTDEF
  5
219
  8
0
 10
0.0
 20
0.0
 30
0.0
 40
1.0
  1
OK
  3

  2
ERRORALT0615
 70
     9
  0
ATTDEF
  5
21A
  8
0
 10
0.0
 20
0.0
 30
0.0
 40
1.0
  1
OK
  3

  2
ERRORALT0616
 70
     9
  0
ATTDEF
  5
21B
  8
0
 10
0.0
 20
0.0
 30
0.0
 40
1.0
  1
OK
  3

  2
ERRORALT06171
 70
     9
  0
ATTDEF
  5
21C
  8
0
 10
0.0
 20
0.0
 30
0.0
 40
1.0
  1
OK
  3

  2
ERRORALT06172
 70
     9
  0
ATTDEF
  5
21D
  8
0
 10
0.0
 20
0.0
 30
0.0
 40
1.0
  1
OK
  3

  2
ERRORALT06173
 70
     9
  0
ATTDEF
  5
21E
  8
0
 10
0.0
 20
0.0
 30
0.0
 40
1.0
  1
OK
  3

  2
ERRORALT0619
 70
     9
  0
ATTDEF
  5
21F
  8
0
 10
0.0
 20
0.0
 30
0.0
 40
1.0
  1
OK
  3

  2
ERRORALT0911
 70
     9
  0
ATTDEF
  5
220
  8
0
 10
0.0
 20
0.0
 30
0.0
 40
1.0
  1
OK
  3

  2
ERRORALT0913
 70
     9
  0
ATTDEF
  5
221
  8
0
 10
0.0
 20
0.0
 30
0.0
 40
1.0
  1
OK
  3

  2
ERRORALT0914
 70
     9
  0
ATTDEF
  5
222
  8
0
 10
0.0
 20
0.0
 30
0.0
 40
1.0
  1
OK
  3

  2
ERRORALT0915
 70
     9
  0
ATTDEF
  5
223
  8
0
 10
0.0
 20
0.0
 30
0.0
 40
1.0
  1
OK
  3

  2
ERRORALT0916
 70
     9
  0
ATTDEF
  5
224
  8
0
 10
0.0
 20
0.0
 30
0.0
 40
1.0
  1
OK
  3

  2
ERRORALT0917
 70
     9
  0
ATTDEF
  5
225
  8
0
 10
0.0
 20
0.0
 30
0.0
 40
1.0
  1
OK
  3

  2
ERRORALT0919
 70
     9
  0
ATTDEF
  5
226
  8
0
 10
0.0
 20
0.0
 30
0.0
 40
1.0
  1
OK
  3

  2
ERRORALT1011
 70
     9
  0
ATTDEF
  5
227
  8
0
 10
0.0
 20
0.0
 30
0.0
 40
1.0
  1
OK
  3

  2
ERRORALT1012
 70
     9
  0
ATTDEF
  5
228
  8
0
 10
0.0
 20
0.0
 30
0.0
 40
1.0
  1
OK
  3

  2
ERRORALT1014
 70
     9
  0
ATTDEF
  5
229
  8
0
 10
0.0
 20
0.0
 30
0.0
 40
1.0
  1
OK
  3

  2
ERRORALT1015
 70
     9
  0
ATTDEF
  5
22A
  8
0
 10
0.0
 20
0.0
 30
0.0
 40
1.0
  1
OK
  3

  2
ERRORALT1016
 70
     9
  0
ATTDEF
  5
22B
  8
0
 10
0.0
 20
0.0
 30
0.0
 40
1.0
  1
OK
  3

  2
ERRORALT1017
 70
     9
  0
ATTDEF
  5
22C
  8
0
 10
0.0
 20
0.0
 30
0.0
 40
1.0
  1
OK
  3

  2
ERRORALT1019
 70
     9
  0
ATTDEF
  5
22D
  8
0
 10
0.0
 20
0.0
 30
0.0
 40
1.0
  1
OK
  3

  2
ERRORALT1112
 70
     9
  0
ATTDEF
  5
22E
  8
0
 10
0.0
 20
0.0
 30
0.0
 40
1.0
  1
OK
  3

  2
ERRORALT1113
 70
     9
  0
ATTDEF
  5
22F
  8
0
 10
0.0
 20
0.0
 30
0.0
 40
1.0
  1
OK
  3

  2
ERRORALT1114
 70
     9
  0
ATTDEF
  5
230
  8
0
 10
0.0
 20
0.0
 30
0.0
 40
1.0
  1
OK
  3

  2
ERRORALT1115
 70
     9
  0
ATTDEF
  5
231
  8
0
 10
0.0
 20
0.0
 30
0.0
 40
1.0
  1
OK
  3

  2
ERRORALT1116
 70
     9
  0
ATTDEF
  5
232
  8
0
 10
0.0
 20
0.0
 30
0.0
 40
1.0
  1
OK
  3

  2
ERRORALT1117
 70
     9
  0
ATTDEF
  5
233
  8
0
 10
0.0
 20
0.0
 30
0.0
 40
1.0
  1
OK
  3

  2
ERRORALT1119
 70
     9
  0
ATTDEF
  5
234
  8
0
 10
0.0
 20
0.0
 30
0.0
 40
1.0
  1
OK
  3

  2
ERRORALT1214
 70
     9
  0
ATTDEF
  5
235
  8
0
 10
0.0
 20
0.0
 30
0.0
 40
1.0
  1
OK
  3

  2
ERRORALT1215
 70
     9
  0
ATTDEF
  5
236
  8
0
 10
0.0
 20
0.0
 30
0.0
 40
1.0
  1
OK
  3

  2
ERRORALT1216
 70
     9
  0
ATTDEF
  5
237
  8
0
 10
0.0
 20
0.0
 30
0.0
 40
1.0
  1
OK
  3

  2
ERRORALT1217
 70
     9
  0
ATTDEF
  5
238
  8
0
 10
0.0
 20
0.0
 30
0.0
 40
1.0
  1
OK
  3

  2
ERRORALT1219
 70
     9
  0
ATTDEF
  5
239
  8
0
 10
0.0
 20
0.0
 30
0.0
 40
1.0
  1
OK
  3

  2
ERRORALT1314
 70
     9
  0
ATTDEF
  5
23A
  8
0
 10
0.0
 20
0.0
 30
0.0
 40
1.0
  1
OK
  3

  2
ERRORALT1315
 70
     9
  0
ATTDEF
  5
23B
  8
0
 10
0.0
 20
0.0
 30
0.0
 40
1.0
  1
OK
  3

  2
ERRORALT1316
 70
     9
  0
ATTDEF
  5
23C
  8
0
 10
0.0
 20
0.0
 30
0.0
 40
1.0
  1
OK
  3

  2
ERRORALT1317
 70
     9
  0
ATTDEF
  5
23D
  8
0
 10
0.0
 20
0.0
 30
0.0
 40
1.0
  1
OK
  3

  2
ERRORALT1319
 70
     9
  0
ATTDEF
  5
23E
  8
0
 10
0.0
 20
0.0
 30
0.0
 40
1.0
  1
OK
  3

  2
ERRORALT1415
 70
     9
  0
ATTDEF
  5
23F
  8
0
 10
0.0
 20
0.0
 30
0.0
 40
1.0
  1
OK
  3

  2
ERRORALT1416
 70
     9
  0
ATTDEF
  5
240
  8
0
 10
0.0
 20
0.0
 30
0.0
 40
1.0
  1
OK
  3

  2
ERRORALT1417
 70
     9
  0
ATTDEF
  5
241
  8
0
 10
0.0
 20
0.0
 30
0.0
 40
1.0
  1
OK
  3

  2
ERRORALT1419
 70
     9
  0
ATTDEF
  5
242
  8
0
 10
0.0
 20
0.0
 30
0.0
 40
1.0
  1
OK
  3

  2
ERRORALT1516
 70
     9
  0
ATTDEF
  5
243
  8
0
 10
0.0
 20
0.0
 30
0.0
 40
1.0
  1
OK
  3

  2
ERRORALT1517
 70
     9
  0
ATTDEF
  5
244
  8
0
 10
0.0
 20
0.0
 30
0.0
 40
1.0
  1
OK
  3

  2
ERRORALT1519
 70
     9
  0
ATTDEF
  5
245
  8
0
 10
0.0
 20
0.0
 30
0.0
 40
1.0
  1
OK
  3

  2
ERRORALT1617
 70
     9
  0
ATTDEF
  5
246
  8
0
 10
0.0
 20
0.0
 30
0.0
 40
1.0
  1
OK
  3

  2
ERRORALT1619
 70
     9
  0
ATTDEF
  5
247
  8
0
 10
0.0
 20
0.0
 30
0.0
 40
1.0
  1
OK
  3

  2
ERRORALT1719
 70
     9
  0
ATTDEF
  5
248
  8
0
 10
0.0
 20
0.0
 30
0.0
 40
1.0
  1

  3

  2
ERRORPN
 70
     9
  0
ATTDEF
  5
249
  8
0
 10
0.0
 20
0.0
 30
0.0
 40
1.0
  1
DUMMY
  3

  2
KT
 70
     9
  0
ENDSEC
  0
EOF
